<svg width="32" height="32" viewBox="0 0 32 32" fill="none" xmlns="http://www.w3.org/2000/svg">
<g clip-path="url(#clip0_428_2889)">
<path fill-rule="evenodd" clip-rule="evenodd" d="M2.18942 12.0168C3.00754 12.3492 3.90983 12.4143 4.76721 12.2028C5.16999 12.0842 5.53894 11.8718 5.84382 11.5831C6.14869 11.2944 6.38082 10.9376 6.52118 10.5418C6.71014 10.0165 6.76897 9.45312 6.69259 8.90004C6.61623 8.34696 6.40695 7.82063 6.08269 7.36611C5.64586 6.80301 5.00751 6.43144 4.30215 6.32968C3.56087 6.196 2.79622 6.30636 2.12299 6.64417C1.44975 6.98199 0.904243 7.52904 0.568331 8.20323C0.355046 9.03397 0.439678 9.9132 0.807507 10.688C1.08678 11.2874 1.5795 11.7612 2.18942 12.0168ZM1.59147 8.49556C1.7705 8.02549 2.12741 7.64484 2.58498 7.43595C3.04254 7.22705 3.56397 7.20675 4.03639 7.3794C4.44347 7.46033 4.80451 7.69311 5.04625 8.03049C5.3217 8.52413 5.39322 9.10591 5.24557 9.65157C5.20607 9.88723 5.10378 10.1079 4.94943 10.2903C4.7951 10.4727 4.59445 10.6101 4.36858 10.688C3.93219 10.7955 3.47622 10.7955 3.03982 10.688C2.83834 10.6566 2.64519 10.5851 2.47175 10.4779C2.29833 10.3706 2.14811 10.2297 2.02997 10.0635C1.68921 9.61589 1.53235 9.055 1.59147 8.49556Z" fill="#F7F7F7"/>
<path fill-rule="evenodd" clip-rule="evenodd" d="M25.2961 6.44913C25.1921 6.5398 25.0944 6.63746 25.0037 6.74145C24.5657 7.2315 24.1617 7.75093 23.7945 8.2961L23.0107 9.49198C23.0107 9.49198 22.6784 9.77102 22.6385 9.9039C22.1509 9.63404 21.6205 9.44977 21.0707 9.3591C19.8973 9.1589 18.6913 9.28757 17.5867 9.73086C16.482 10.1741 15.5217 10.9147 14.8121 11.8705L14.666 11.7907L13.0715 10.9669C12.4457 10.7596 11.8063 10.5953 11.1581 10.4753C10.5103 10.391 9.858 10.3466 9.2048 10.3424L8.20824 10.0766C8.08841 10.0766 7.97351 10.1242 7.88877 10.209C7.80405 10.2937 7.75645 10.4086 7.75645 10.5284C7.75852 10.6423 7.80113 10.7517 7.87664 10.8369C7.95215 10.9222 8.05559 10.9777 8.16837 10.9935C8.16837 11.1131 8.44741 11.1928 8.63344 11.2858C8.76313 11.3601 8.90148 11.4181 9.04536 11.4585C9.66987 11.6047 10.2545 11.8173 10.8658 11.9635C11.477 12.1096 12.0749 12.1894 12.6994 12.3355L14.2541 12.6677H14.4003V12.774C13.9935 14.2941 14.1395 15.9091 14.8121 17.3317C15.006 17.7138 15.2519 18.067 15.5429 18.3814L16.2472 19.0059C16.5309 19.2111 16.8335 19.3891 17.1508 19.5374C17.8533 19.8215 18.5993 19.9833 19.3565 20.0158H20.3929C20.8416 19.9793 21.2863 19.9037 21.7217 19.7899C22.6232 19.5083 23.4135 18.9506 23.9807 18.1954C24.1268 18.3549 24.366 18.6737 24.7247 19.0723C24.8248 19.1973 24.936 19.3129 25.0569 19.4178C25.2429 19.5773 25.4289 19.7234 25.6149 19.8563C26.8109 20.1753 26.9437 19.6305 26.864 18.9262L26.6248 18.6605C26.4513 18.499 26.2647 18.3523 26.0668 18.2219L25.6283 17.9827C25.1367 17.7303 24.738 17.5709 24.5387 17.4911C24.7844 17.0223 24.9633 16.5214 25.0701 16.0029C25.4131 14.3507 25.0985 12.63 24.1932 11.2061C23.9932 10.9114 23.7515 10.6474 23.4757 10.4221L23.768 10.1829L25.0037 9.13322C25.3759 8.66816 25.8143 8.21637 26.2129 7.72473C26.3459 7.57857 26.4653 7.41912 26.5849 7.25966C26.9437 5.95748 26.6248 5.61201 25.2961 6.44913ZM19.2503 20.8662V22.2879C19.2503 22.567 19.3699 23.1118 19.4363 23.5236C19.5027 23.9356 20.6985 24.2545 20.7651 23.6433C20.8315 23.0321 20.7651 22.6866 20.7651 22.2082C20.7583 21.9145 20.7316 21.6214 20.6853 21.3313C20.6491 21.1334 20.6003 20.9382 20.5391 20.7466C20.3531 20.2151 19.3699 20.3347 19.2503 20.8662ZM14.3869 19.1521L13.9884 19.4046C13.3771 19.7766 12.7659 20.1221 12.1679 20.5207C11.57 20.9194 10.9986 21.3179 10.4405 21.7431C9.35097 22.6467 8.23481 23.5503 7.18509 24.4937L6.85289 24.7861C5.63044 26.1147 5.94935 26.3407 7.50399 25.7561L8.02221 25.4371C8.69988 24.9322 9.35097 24.4671 10.0818 23.9755C10.8126 23.4838 11.4105 22.9922 12.1015 22.4873C12.9918 21.7963 13.8421 21.0787 14.7591 20.3878L15.1975 20.029C15.5563 19.1521 15.3171 18.873 14.3869 19.1521ZM23.5953 15.6973C23.4873 16.3043 23.2183 16.8713 22.8163 17.3389C22.4141 17.8063 21.8939 18.1573 21.3099 18.3549C20.3171 18.6173 19.2731 18.6173 18.2803 18.3549C17.8095 18.267 17.3625 18.0807 16.9687 17.8082C16.5748 17.5358 16.2429 17.1833 15.9948 16.7737C15.3548 15.6699 15.1332 14.373 15.3703 13.1195C15.9948 10.6347 18.9313 9.95705 20.8315 10.462C21.2868 10.541 21.7211 10.7127 22.1073 10.9664C22.4936 11.2201 22.8237 11.5504 23.0771 11.9369C23.7068 13.0839 23.8913 14.4227 23.5953 15.6973Z" fill="#F7F7F7"/>
<path fill-rule="evenodd" clip-rule="evenodd" d="M19.583 24.3609C19.1373 24.3137 18.6868 24.3497 18.2542 24.4673C17.7944 24.5616 17.3677 24.776 17.0176 25.0888C16.6674 25.4015 16.4065 25.8015 16.2612 26.2479C16.0422 27.1487 16.1753 28.0992 16.6332 28.9053C16.9616 29.4689 17.4797 29.8975 18.0948 30.1145C18.92 30.3799 19.8076 30.3799 20.6328 30.1145C21.1784 29.9476 21.6485 29.5949 21.9616 29.1179C22.222 28.6677 22.3722 28.1624 22.4 27.6431C22.4036 27.5819 22.395 27.5207 22.375 27.4629C22.3549 27.4051 22.3236 27.3519 22.2828 27.3061C22.2421 27.2605 22.1928 27.2233 22.1376 27.1968C22.0825 27.1701 22.0226 27.1548 21.9616 27.1513C21.901 27.1459 21.8402 27.1527 21.7825 27.1713C21.7248 27.1899 21.6713 27.2199 21.6254 27.2596C21.5796 27.2993 21.5421 27.3479 21.5154 27.4023C21.4886 27.4567 21.4732 27.516 21.4698 27.5765C21.4321 27.9168 21.2985 28.2395 21.0845 28.5067C20.8909 28.7391 20.6237 28.8985 20.3272 28.9585C19.8505 29.0329 19.3629 28.9919 18.9053 28.8389C18.7133 28.7883 18.5338 28.6984 18.3782 28.5749C18.2228 28.4515 18.0945 28.2969 18.0018 28.1213C17.7436 27.6856 17.6493 27.172 17.7361 26.6731C17.8029 26.4433 17.925 26.2336 18.0918 26.0621C18.2586 25.8907 18.465 25.7628 18.6928 25.6897C19.1069 25.4955 19.5686 25.4263 20.0216 25.4904C20.463 25.5223 20.8738 25.7277 21.1642 26.0617C21.2306 26.1345 21.3209 26.1812 21.4186 26.1932C21.5164 26.2052 21.6153 26.1817 21.6972 26.1271C21.7792 26.0724 21.8388 25.9903 21.8654 25.8953C21.892 25.8005 21.8836 25.6992 21.842 25.61C21.5832 25.1788 21.1914 24.8431 20.7257 24.6533L19.583 24.3609Z" fill="#F7F7F7"/>
<path fill-rule="evenodd" clip-rule="evenodd" d="M31.0478 1.13425C30.6213 0.559131 29.9873 0.173013 29.2806 0.0579516C28.5406 -0.0790342 27.7762 0.028361 27.1027 0.363931C26.4291 0.6995 25.883 1.24504 25.5467 1.91821C25.3223 2.75375 25.4122 3.64256 25.7993 4.41628C25.9775 4.78 26.2366 5.09815 26.5566 5.34641L27.593 5.83805C28.2995 6.0158 29.0391 6.0158 29.7457 5.83805C30.1323 5.73124 30.4898 5.53828 30.7913 5.27364C31.0926 5.009 31.3303 4.67955 31.4863 4.30999C31.6753 3.7846 31.7341 3.22125 31.6577 2.66817C31.5814 2.11509 31.3721 1.58876 31.0478 1.13425ZM30.2107 3.44629C30.1722 3.67623 30.0694 3.89056 29.9142 4.06456C29.759 4.23855 29.5578 4.36509 29.3337 4.42957C28.8966 4.53063 28.4421 4.53063 28.005 4.42957C27.8035 4.39812 27.6103 4.32667 27.4369 4.21941C27.2634 4.11215 27.1133 3.97127 26.9951 3.80505C25.8523 2.09096 27.1811 0.642605 29.0813 1.14753C29.4801 1.23937 29.8278 1.48229 30.0513 1.8252C30.3079 2.32581 30.365 2.90525 30.2107 3.44629Z" fill="#F7F7F7"/>
<path fill-rule="evenodd" clip-rule="evenodd" d="M5.87101 27.0586L5.18006 26.4075C4.83054 26.1951 4.44197 26.0551 4.03733 25.9957C3.29778 25.8606 2.53437 25.9705 1.86293 26.3086C1.19148 26.6467 0.648653 27.1946 0.3168 27.8693C0.0949972 28.7031 0.194589 29.5901 0.59584 30.3539C0.854685 30.9491 1.32951 31.4239 1.9246 31.6827C2.76742 32.0287 3.6993 32.0939 4.58212 31.8687C4.98313 31.7559 5.35201 31.5505 5.659 31.2689C5.96598 30.9873 6.20246 30.6375 6.34937 30.2477C6.53614 29.7175 6.59021 29.1497 6.50682 28.5937C6.42344 28.0378 6.20514 27.5107 5.87101 27.0586ZM5.02061 29.291C4.98104 29.5226 4.87626 29.7381 4.71858 29.9122C4.5609 30.0863 4.35685 30.2119 4.13034 30.2742C3.69346 30.3777 3.23846 30.3777 2.80158 30.2742C2.59941 30.245 2.40541 30.1745 2.23168 30.0671C2.05793 29.9597 1.90818 29.8175 1.79173 29.6498C1.47868 29.2149 1.33246 28.6819 1.37981 28.1482C1.46349 27.909 1.59517 27.6894 1.76676 27.503C1.93834 27.3165 2.14624 27.167 2.37766 27.0637C2.60909 26.9605 2.85918 26.9055 3.1126 26.9023C3.366 26.8993 3.61737 26.9479 3.8513 27.0454C4.24958 27.1385 4.59685 27.3811 4.82129 27.723C5.08414 28.2015 5.1554 28.7619 5.02061 29.291Z" fill="#F7F7F7"/>
<path fill-rule="evenodd" clip-rule="evenodd" d="M31.2612 19.6308C30.9785 19.2724 30.5866 19.0157 30.145 18.9C29.681 18.7942 29.1986 18.7993 28.7369 18.9146C28.2752 19.0301 27.8472 19.2526 27.4876 19.5644L26.9428 20.5742C26.8494 21.14 26.9185 21.7205 27.1421 22.2485C27.3656 22.7114 27.7473 23.079 28.2184 23.2849C28.8625 23.5498 29.5737 23.6057 30.2514 23.4444C30.5761 23.3532 30.8738 23.1848 31.1192 22.9533C31.3644 22.7218 31.55 22.4344 31.6598 22.1156C31.7981 21.6998 31.8341 21.2569 31.7646 20.8244C31.6953 20.3918 31.5226 19.9824 31.2612 19.6308ZM30.3045 21.3848C30.2817 21.516 30.2222 21.6381 30.1329 21.7369C30.0434 21.8357 29.928 21.9072 29.7996 21.9429C29.5066 22.0104 29.2022 22.0104 28.9093 21.9429C28.7868 21.9322 28.668 21.896 28.5604 21.8365C28.4528 21.777 28.3589 21.6956 28.2848 21.5974C28.1658 21.4573 28.0773 21.294 28.0246 21.1178C27.9721 20.9417 27.9566 20.7566 27.9792 20.5742C28.1121 19.87 28.9226 19.6706 29.6136 19.87C29.8662 19.932 30.0852 20.089 30.2248 20.3085C30.3126 20.4723 30.3652 20.6528 30.3789 20.8381C30.3926 21.0236 30.3673 21.2098 30.3045 21.3848Z" fill="#F7F7F7"/>
</g>
<defs>
<clipPath id="clip0_428_2889">
<rect width="32" height="32" fill="white"/>
</clipPath>
</defs>
</svg>
