<svg width="16" height="16" viewBox="0 0 16 16" fill="none" xmlns="http://www.w3.org/2000/svg">
<g clip-path="url(#clip0_426_3697)">
<path d="M0.945693 10.0827C1.0912 10.2849 1.25377 10.4741 1.4316 10.6485C1.47646 10.6821 1.53196 10.6985 1.58789 10.6945C1.64383 10.6905 1.69646 10.6665 1.73611 10.6269C1.77577 10.5872 1.79979 10.5346 1.80377 10.4786C1.80774 10.4227 1.79141 10.3672 1.75775 10.3223C1.60302 10.1578 1.46063 9.98201 1.33175 9.79647C1.14538 9.51027 0.978973 9.21074 0.812567 8.91121C0.75266 8.80474 0.686093 8.69154 0.632846 8.57841C0.596197 8.50394 0.577937 8.42174 0.579596 8.33881L0.82588 7.98601L1.61132 6.93427C2.31495 6.11567 3.14669 5.41656 4.07414 4.8642C4.97511 4.27224 5.98024 3.85663 7.0362 3.63945C7.47547 3.5621 7.92167 3.53087 8.3674 3.54626C8.82813 3.56847 9.28533 3.63761 9.73193 3.75261C9.78407 3.76707 9.83967 3.76053 9.887 3.73439C9.93427 3.70825 9.96947 3.6646 9.98493 3.61282C9.993 3.58705 9.9958 3.5599 9.99307 3.53302C9.99033 3.50614 9.9822 3.48008 9.96913 3.45643C9.95607 3.43279 9.93833 3.41204 9.91707 3.39544C9.89573 3.37885 9.87127 3.36675 9.84513 3.35989C8.90073 3.05552 7.90373 2.94903 6.91633 3.04704C5.76669 3.2061 4.66273 3.60281 3.67476 4.21189C2.6698 4.80833 1.78308 5.58449 1.05885 6.50165L0.293377 7.64654C0.206317 7.76801 0.130563 7.89727 0.0670633 8.03261C0.0285903 8.11648 0.00602031 8.20674 0.000500714 8.29881C-0.00428619 8.44994 0.0253015 8.60014 0.087032 8.73814C0.164893 8.89514 0.25387 9.04641 0.353283 9.19081C0.546315 9.49034 0.732693 9.79647 0.945693 10.0827Z" fill="#101010"/>
<path d="M6.48455 6.34168C6.81425 6.14957 7.16785 6.00186 7.53625 5.90236C7.71565 5.85004 7.89792 5.80781 8.08205 5.7759C8.19259 5.76251 8.30432 5.76251 8.41485 5.7759C8.46852 5.78386 8.52312 5.77107 8.56765 5.74016C8.61219 5.70924 8.64325 5.66251 8.65452 5.60949C8.66439 5.5566 8.65319 5.50196 8.62332 5.4572C8.59352 5.41244 8.54739 5.3811 8.49472 5.36986C8.35045 5.33813 8.20312 5.3225 8.05545 5.32327C7.84912 5.32327 7.64939 5.32327 7.44305 5.3632C6.98345 5.39208 6.53269 5.50252 6.1118 5.68936C5.70092 5.88064 5.33728 6.16018 5.0468 6.50808C4.74833 6.8623 4.53837 7.28243 4.43421 7.73383C4.33005 8.18516 4.33469 8.65483 4.44773 9.10403C4.45179 9.1339 4.46178 9.16263 4.4771 9.18856C4.49241 9.2145 4.51276 9.23716 4.53694 9.25516C4.56112 9.2731 4.58865 9.2861 4.61791 9.2933C4.64717 9.3005 4.67757 9.30176 4.70733 9.29703C4.76818 9.28723 4.82267 9.2537 4.85885 9.20383C4.89503 9.1539 4.90995 9.0917 4.90036 9.03083C4.86563 8.66556 4.91206 8.29716 5.03634 7.9519C5.16061 7.6067 5.35967 7.29323 5.61924 7.0339C5.87016 6.75983 6.16207 6.52631 6.48455 6.34168Z" fill="#101010"/>
<path d="M12.0943 5.17057C12.3406 5.32367 12.9663 5.68977 13.0795 5.7763C13.3951 6.02381 13.6953 6.29057 13.9781 6.57505C14.2531 6.85464 14.5089 7.15264 14.7435 7.46697C14.9069 7.67864 15.0559 7.90104 15.1895 8.13264C15.2631 8.24691 15.3087 8.37684 15.3227 8.51204C15.3221 8.61704 15.2947 8.72024 15.2427 8.81157C15.173 8.94271 15.0952 9.06937 15.0098 9.19097C14.838 9.45911 14.6419 9.71084 14.4241 9.94311C14.0733 10.2994 13.7022 10.635 13.3125 10.9482C13.1425 11.1009 12.9599 11.239 12.7666 11.3609C12.4605 11.5606 12.1343 11.7336 11.8148 11.9067C11.4953 12.0798 11.0293 12.346 10.6233 12.5324C10.3657 12.6594 10.0987 12.7662 9.82452 12.8519C9.08646 13.0649 8.32292 13.1768 7.55479 13.1847C6.77939 13.199 6.00544 13.114 5.25169 12.9318C5.12049 12.8992 4.99326 12.8523 4.87228 12.792C4.55278 12.6456 4.25325 12.4459 3.9404 12.2994C3.88568 12.273 3.82268 12.2693 3.76525 12.2893C3.70783 12.3092 3.6607 12.3512 3.63422 12.406C3.60774 12.4606 3.60408 12.5236 3.62405 12.5811C3.64402 12.6385 3.68599 12.6856 3.74072 12.7121C4.0469 12.8719 4.33978 13.0849 4.65262 13.2446C4.80212 13.3204 4.95805 13.3828 5.11856 13.431C5.90943 13.6573 6.72579 13.7826 7.54812 13.8038C8.37952 13.8272 9.21026 13.7376 10.0176 13.5375C10.3285 13.452 10.6332 13.3453 10.9295 13.218C11.3621 13.0316 11.7682 12.8053 12.1809 12.5856C12.5253 12.4118 12.8607 12.2208 13.186 12.0132C13.4205 11.8694 13.6431 11.7069 13.8516 11.5273C14.245 11.1828 14.6163 10.8137 14.9632 10.4224C15.2124 10.1536 15.4353 9.86164 15.6288 9.55037C15.7423 9.36351 15.8403 9.16757 15.9217 8.96464C15.9855 8.79484 16.0105 8.61291 15.9949 8.43217C15.9656 8.19417 15.8813 7.96624 15.7487 7.76651C15.5885 7.53311 15.4128 7.31077 15.2228 7.10091C14.9571 6.77617 14.6679 6.47137 14.3575 6.18899C14.0501 5.90795 13.7279 5.64355 13.3923 5.39689L12.4471 4.85107L12.0943 5.17057Z" fill="#101010"/>
<path d="M12.4474 4.85076H12.4873L15.7689 1.8155C15.8115 1.77195 15.8355 1.71341 15.8355 1.65243C15.8355 1.59145 15.8115 1.53289 15.7689 1.48935C15.7245 1.44817 15.6663 1.42529 15.6058 1.42529C15.5453 1.42529 15.4871 1.44817 15.4427 1.48935L10.7035 5.50308C10.0977 6.00895 9.49201 6.50152 8.87967 7.00073C7.96774 7.74627 7.04914 8.48507 6.13726 9.23727C5.47163 9.7764 4.80601 10.3222 4.19363 10.868C3.27506 11.6535 2.37647 12.4789 1.44459 13.2576C1.05187 13.5905 0.645837 13.9233 0.239805 14.2228C0.205635 14.2571 0.184626 14.3023 0.180455 14.3506C0.176283 14.3989 0.189216 14.447 0.216989 14.4867C0.244761 14.5264 0.285603 14.555 0.332366 14.5676C0.379129 14.5802 0.428832 14.5759 0.472774 14.5556C0.905435 14.2561 1.33143 13.9765 1.74412 13.6304C2.70928 12.8915 3.64781 12.1194 4.60631 11.3805C4.87922 11.1675 7.80134 8.88447 8.60008 8.2388C9.17254 7.77287 10.6435 6.50152 10.6435 6.50152C10.8233 6.34842 11.003 6.19533 11.1761 6.03558L12.1079 5.17026L12.4474 4.85076Z" fill="#BA3C3C"/>
<path d="M10.6043 7.5203C10.6637 7.75277 10.6795 7.99424 10.6509 8.2325C10.6236 8.4837 10.5701 8.7313 10.4912 8.97137C10.3593 9.36917 10.1588 9.7409 9.89881 10.0696C9.65541 10.3944 9.33827 10.6568 8.97361 10.8351C8.41814 11.0918 7.79394 11.1596 7.19634 11.0281C6.90827 10.9752 6.62699 10.8904 6.35767 10.7752C6.01155 10.5622 5.57223 10.9083 5.92501 11.128C6.27938 11.3464 6.66247 11.5145 7.06321 11.6272C7.80521 11.8447 8.59821 11.812 9.31974 11.534C9.79634 11.3067 10.2083 10.9634 10.5179 10.5356C10.8189 10.1209 11.0339 9.6501 11.1502 9.15104C11.2361 8.80057 11.2742 8.4401 11.2633 8.07944C11.2532 7.82917 11.2038 7.5821 11.1169 7.34724L10.9439 7.03437C10.6509 6.61503 10.3647 7.0743 10.5378 7.36717L10.6043 7.5203Z" fill="#101010"/>
</g>
<defs>
<clipPath id="clip0_426_3697">
<rect width="16" height="16" fill="white"/>
</clipPath>
</defs>
</svg>
