<svg width="32" height="32" viewBox="0 0 32 32" fill="none" xmlns="http://www.w3.org/2000/svg">
<g clip-path="url(#clip0_428_2892)">
<path d="M31.9849 18.8003C30.8212 16.8568 29.4829 15.0235 27.9867 13.3227C27.5336 12.8074 27.0671 12.301 26.5873 11.8034C26.5873 11.297 26.5873 10.8039 26.6807 10.2974C26.7739 9.24457 26.9072 8.1917 27.0272 7.1655C27.0591 6.57919 27.0501 5.99137 27.0005 5.40629C27.0023 4.90138 26.8835 4.40335 26.654 3.95361C26.4864 3.66579 26.2288 3.44102 25.9209 3.3139C25.6212 3.2223 25.3132 3.15982 25.0013 3.12731C24.4972 3.06746 23.9897 3.04075 23.4821 3.04735C22.9675 3.05438 22.4544 3.10791 21.9495 3.20727C21.6859 3.25517 21.4272 3.32653 21.1764 3.42051C20.9549 3.51085 20.7551 3.64711 20.59 3.82034C20.3701 4.11625 20.2573 4.4781 20.2701 4.84654V5.31299L17.9645 2.74082C17.6776 2.42418 17.3505 2.14641 16.9916 1.91453C16.662 1.70498 16.2756 1.60257 15.8855 1.62133C15.558 1.6291 15.2449 1.75721 15.0059 1.98117C14.7176 2.27029 14.4587 2.58725 14.2329 2.92741L11.4075 6.12597C10.2747 7.4587 9.11519 8.79143 7.94239 10.1242C6.76957 11.4569 5.57012 12.7896 4.33068 14.0024C3.3178 15.0553 2.21163 15.9349 1.25206 16.9877C0.817135 17.4573 0.420491 17.9609 0.0659259 18.4937C0.008442 18.5829 -0.0125498 18.6907 0.00729817 18.7949C0.0271461 18.8991 0.0863132 18.9917 0.172544 19.0535C0.263277 19.1096 0.37222 19.1285 0.47656 19.1061C0.580899 19.0839 0.67254 19.022 0.732293 18.9336C1.19624 18.3 1.72313 17.7151 2.30492 17.1876C3.19785 16.348 4.15743 15.6151 5.07701 14.7488C6.40975 13.5227 7.63585 12.2832 8.88863 11.0038C10.1414 9.72435 11.3409 8.43159 12.527 7.09886C12.527 7.09886 15.9788 3.1673 15.9521 3.1673C15.9255 3.1673 19.8171 7.04555 19.8171 7.04555C21.7495 8.93803 23.7353 10.7372 25.6277 12.6564L25.7077 12.7497C26.1608 13.1895 26.6007 13.6292 27.0405 14.0824C28.5685 15.686 29.9469 17.4257 31.1587 19.28C31.1901 19.3308 31.2313 19.3748 31.2799 19.4097C31.3284 19.4445 31.3833 19.4695 31.4415 19.4831C31.4996 19.4967 31.5599 19.4987 31.6188 19.4891C31.6777 19.4793 31.7343 19.4581 31.7851 19.4267C31.8357 19.3952 31.8799 19.354 31.9147 19.3055C31.9495 19.2569 31.9744 19.202 31.988 19.1439C32.0016 19.0856 32.0036 19.0253 31.994 18.9664C31.9843 18.9075 31.9631 18.8511 31.9316 18.8003H31.9849ZM21.3231 6.35253V5.13974C21.3231 4.71327 21.3231 4.67329 21.4563 4.57999L22.216 4.43339C22.5621 4.41342 22.9093 4.41342 23.2555 4.43339C23.7924 4.46553 24.3265 4.5323 24.8548 4.6333L25.3212 4.73993C25.4469 4.96902 25.5155 5.22503 25.5212 5.48626C25.5545 6.01438 25.5545 6.54409 25.5212 7.07221V10.7239C23.9885 9.25789 22.6557 7.81854 21.2031 6.35253H21.3231Z" fill="#F7F7F7"/>
<path d="M15.2451 14.1888C15.5944 14.2838 15.9596 14.3066 16.3182 14.2558C16.6767 14.205 17.0211 14.0816 17.3304 13.8934C17.6396 13.7051 17.9074 13.4556 18.1171 13.1605C18.3268 12.8653 18.4742 12.5304 18.5503 12.1764C19.1367 10.0174 17.3242 8.1782 14.552 9.24439C13.9963 9.48009 13.5296 9.88607 13.2193 10.4039C13.01 10.7806 12.9092 11.2079 12.928 11.6384C12.9468 12.0689 13.0846 12.4858 13.3259 12.8428C13.7742 13.5163 14.4591 13.9967 15.2451 14.1888ZM14.3922 10.9769C14.585 10.5668 14.9287 10.2469 15.3516 10.084C16.6844 9.48428 17.8572 10.4172 17.3375 11.7899C17.2891 11.9655 17.2054 12.1293 17.0912 12.2712C16.9771 12.4132 16.8351 12.5302 16.674 12.6151C16.5128 12.7001 16.336 12.7511 16.1544 12.765C15.973 12.7789 15.7904 12.7555 15.6182 12.6962C15.2259 12.5795 14.8866 12.3297 14.6587 11.9898C14.5262 11.8613 14.4312 11.699 14.3843 11.5205C14.3374 11.342 14.34 11.154 14.3922 10.9769Z" fill="#F7F7F7"/>
<path d="M27.4933 18.9203V16.2548C27.4933 16.1954 27.4816 16.1364 27.4589 16.0814C27.4361 16.0264 27.4026 15.9764 27.3606 15.9344C27.3185 15.8923 27.2686 15.859 27.2136 15.8362C27.1586 15.8134 27.0997 15.8018 27.0402 15.8018C26.9808 15.8018 26.9218 15.8134 26.8668 15.8362C26.8118 15.859 26.7618 15.8923 26.7198 15.9344C26.6777 15.9764 26.6444 16.0264 26.6216 16.0814C26.5988 16.1364 26.587 16.1954 26.587 16.2548V18.9203C26.4938 21.0127 26.2938 23.1051 26.2538 25.1842C26.3057 26.023 26.3057 26.8642 26.2538 27.703C26.2217 28.1567 26.0598 28.5915 25.7874 28.9558C25.6674 29.0891 25.4142 28.9558 25.1744 28.9558C24.7213 28.9558 24.2548 28.8624 23.9882 28.8492C23.0553 28.8492 17.9909 28.4894 17.2313 28.4894H12.3801C11.5005 28.4894 10.6076 28.5826 9.71466 28.6892C9.06162 28.7692 8.27531 28.9558 7.52898 28.9958C7.13861 29.0294 6.74582 28.97 6.38283 28.8226C6.18291 28.7292 6.11629 28.4627 6.04965 28.1962C5.94017 27.5798 5.87779 26.956 5.86306 26.3303C5.74311 24.9976 5.66315 23.7582 5.60985 22.4787C5.60985 20.533 5.52987 18.6004 5.51655 16.6547C5.51833 16.6022 5.50974 16.5498 5.49127 16.5006C5.47281 16.4514 5.44483 16.4063 5.40894 16.368C5.37305 16.3296 5.32994 16.2987 5.28209 16.277C5.23423 16.2552 5.18257 16.2432 5.13006 16.2415C5.07645 16.2398 5.02302 16.2487 4.97295 16.268C4.9229 16.2874 4.87723 16.3164 4.83869 16.3538C4.80014 16.3911 4.76949 16.4358 4.74857 16.4852C4.72765 16.5346 4.71687 16.5876 4.71691 16.6414C4.65027 18.6004 4.58363 20.5463 4.57031 22.492C4.57031 23.8247 4.57031 25.1575 4.66359 26.4236C4.64477 27.2382 4.72081 28.0522 4.89017 28.8492C5.01662 29.3411 5.33293 29.7628 5.76977 30.022C6.18614 30.228 6.63897 30.3503 7.1025 30.3818C8.02206 30.3759 8.93985 30.3002 9.84794 30.1552C10.8075 30.0619 11.7804 30.022 12.7666 29.9954H17.2046L23.8682 30.2352C24.4757 30.2906 25.0868 30.2906 25.6941 30.2352C26.1068 30.1946 26.4906 30.0051 26.7737 29.7022C27.1081 29.2708 27.3282 28.7619 27.4134 28.2228C27.5121 27.1723 27.5121 26.1147 27.4134 25.0642C27.3601 23.0918 27.4666 20.9994 27.4933 18.9203Z" fill="#F7F7F7"/>
<path d="M12.9922 27.8892C12.9922 27.1962 12.8056 26.4631 12.8589 25.7302C12.9409 24.5688 13.312 23.4463 13.9384 22.465C14.1583 22.1242 14.4632 21.8464 14.8231 21.6595C15.1831 21.4726 15.5855 21.3827 15.9908 21.3987C16.4134 21.3895 16.8328 21.4731 17.2198 21.6435C17.6066 21.8138 17.9514 22.067 18.2298 22.385C18.8286 23.0722 19.1968 23.9298 19.2827 24.8372C19.3674 25.8478 19.3986 26.862 19.3759 27.8759C19.3759 28.2623 20.2023 28.4756 20.3755 27.8759C20.535 26.5256 20.535 25.1612 20.3755 23.811C20.2278 22.9303 19.8611 22.1008 19.3094 21.3987C18.9051 20.9095 18.3984 20.5151 17.825 20.2434C17.2515 19.9716 16.6254 19.8291 15.9908 19.8262C15.3311 19.8256 14.6828 19.9975 14.11 20.3248C13.5374 20.6522 13.0601 21.1234 12.7256 21.6919C12.0819 22.9255 11.7524 24.2988 11.766 25.6902C11.774 26.4526 11.8861 27.2104 12.0992 27.9424C12.2592 28.329 12.9522 28.329 12.9922 27.8892Z" fill="#F7F7F7"/>
</g>
<defs>
<clipPath id="clip0_428_2892">
<rect width="32" height="32" fill="white"/>
</clipPath>
</defs>
</svg>
