<svg width="32" height="32" viewBox="0 0 32 32" fill="none" xmlns="http://www.w3.org/2000/svg">
<g clip-path="url(#clip0_428_2883)">
<path fill-rule="evenodd" clip-rule="evenodd" d="M31.6941 18.8822C31.1335 18.335 29.9456 18.5752 29.1983 18.5752L22.9119 18.8155C23.6593 18.255 20.5228 10.3803 18.1739 5.17512L18.0137 4.61456C19.2803 3.99459 20.6743 3.67923 22.0844 3.69364C22.0844 5.32193 25.3277 12.5425 26.4621 15.0651C26.4621 15.1719 27.69 18.1348 27.7968 18.2416C27.8857 18.3242 28.0025 18.37 28.1239 18.37C28.2451 18.37 28.362 18.3242 28.4508 18.2416C28.7177 17.9747 27.4899 14.5046 27.5299 14.6112C23.5259 4.20081 23.5259 2.47908 22.5649 2.33227C21.2303 2.14541 18.8412 3.26655 17.6933 3.86715C16.5455 4.46775 17.4264 5.52215 17.8803 7.24387C17.9869 7.55084 17.9469 7.36399 17.5065 7.36399C16.8064 7.38765 16.1097 7.47251 15.4244 7.61757C15.1441 6.28291 14.6103 6.09605 13.8095 6.00263C12.8083 5.92921 11.8023 5.95604 10.8064 6.08271C10.4601 6.07705 10.1145 6.11744 9.77873 6.20283C9.97893 4.48109 9.77873 3.70699 8.29725 3.15977C6.72699 2.56381 5.00213 2.51212 3.399 3.01295C2.57149 3.30659 2.18444 3.74703 2.06432 5.055C1.99759 5.76239 2.13105 18.5886 2.59819 19.9099C1.86679 20.0528 1.14473 20.24 0.43602 20.4704C-0.631719 20.8442 0.529448 23.1399 1.07666 24.221C1.83743 25.7024 1.07666 24.8883 4.1998 24.875C3.76111 25.7564 3.55004 26.7338 3.58585 27.7178C3.71932 29.0524 4.81375 30.0935 7.16277 29.533C8.84447 29.0258 8.23052 27.0104 8.15044 25.8226C8.15044 25.6624 8.01697 25.0484 7.95024 24.7815C9.9122 24.688 11.7541 24.5812 14.4635 24.3143C15.8916 24.1675 17.3597 24.3143 18.8011 24.2343C19.9756 24.2343 21.4037 23.9139 23.2723 23.7004C23.1921 24.8958 23.1921 26.0952 23.2723 27.2907C23.1923 28.1315 23.5125 28.7054 24.6069 29.0524C25.1319 29.2755 25.7144 29.3246 26.2692 29.1924C26.8241 29.0604 27.322 28.754 27.69 28.3184C28.1972 27.4908 27.8769 24.6347 27.69 23.6871C28.5116 24.021 29.4311 24.021 30.2527 23.6871C30.9753 23.1386 31.4544 22.3288 31.5873 21.4315C31.614 20.9376 32.4281 19.6163 31.6941 18.8822ZM9.64527 7.16379C10.6018 7.03347 11.5716 7.03347 12.5282 7.16379C12.8793 7.19337 13.2275 7.2514 13.5692 7.33729C13.6893 7.33729 13.9963 7.33729 13.9429 7.44407C13.5959 7.99129 14.6503 18.6687 14.6503 18.6687C14.7237 18.7199 14.8091 18.7514 14.8981 18.7599C14.9872 18.7686 15.0771 18.754 15.1589 18.7178C15.2407 18.6816 15.3119 18.6248 15.3653 18.5531C15.4189 18.4814 15.4531 18.3971 15.4644 18.3083C15.6647 17.1471 15.6247 10.2202 15.5979 9.65963C15.4912 8.21819 15.3844 8.32496 17.2663 8.43173C17.3979 8.44425 17.5276 8.47111 17.6533 8.51181C17.7683 8.99232 17.8177 9.48619 17.8001 9.97995C18.0671 11.9286 17.8001 12.8762 18.2405 15.8526L18.4675 17.7478C18.5743 18.1882 18.3473 18.8422 18.9079 18.7888C19.5619 18.9756 19.602 18.5219 19.4819 12.2089C19.7355 12.9296 20.0291 13.6236 20.3493 14.3176C22.4448 18.9756 22.2045 18.7354 22.338 18.8155C17.8837 18.7024 13.4267 18.8584 8.99128 19.2827C8.97793 19.1091 9.57853 7.67096 9.64527 7.16379ZM3.51912 5.54884C3.77271 2.65259 8.17713 4.92153 8.29725 4.86815C8.36517 5.69641 8.33381 6.52983 8.20383 7.35064C8.12375 8.55185 7.97693 14.3844 8.20383 17.561C8.20383 18.2015 8.08371 18.7622 8.07036 19.3494C6.5058 19.3838 4.94524 19.522 3.399 19.7631C3.21215 18.989 3.46573 8.64528 3.51912 5.54884ZM6.98927 27.4242C6.98927 27.5576 6.90919 28.0247 6.77572 28.0515C6.33725 28.1584 5.87951 28.1584 5.44105 28.0515C4.10637 27.6511 5.12072 25.1819 4.8004 24.8082C7.28289 24.8082 6.94923 24.688 6.98927 24.8082C6.74903 25.0218 7.21616 25.342 6.98927 27.4242ZM26.4888 27.4242C26.3821 27.6778 25.0073 27.6778 24.6069 27.5042C24.6069 27.3707 24.4335 26.5967 24.0064 23.5936C24.8948 23.5255 25.7872 23.5255 26.6757 23.5936C26.5272 24.8738 26.4648 26.1624 26.4888 27.4508V27.4242ZM30.0124 21.0043C29.7588 22.0454 29.652 22.5792 28.6777 22.3391C25.8348 21.6583 22.5649 22.3391 19.7355 22.8062C18.0271 23.0731 16.0917 22.8863 14.3033 23.0998C12.5148 23.3134 10.406 23.5403 8.45741 23.6871C8.1104 23.6871 1.9442 24.1275 1.78404 23.8206C1.62388 23.5135 1.55715 21.565 1.00993 21.2312C4.41335 20.2303 8.00363 20.5906 11.6873 20.337C15.8115 20.0567 19.9089 20.337 23.3391 20.337C27.9169 20.337 27.9971 20.0167 30.0124 20.2436C30.0257 20.5772 30.0257 20.9376 30.0124 21.0311V21.0043Z" fill="#F7F7F7"/>
<path fill-rule="evenodd" clip-rule="evenodd" d="M6.23022 13.9307H5.66966C5.49321 13.9424 5.31862 13.9737 5.14913 14.0241C4.73538 14.1309 4.38837 14.3044 3.96128 14.4112C3.85741 14.4147 3.75897 14.4584 3.68673 14.5331C3.6145 14.6077 3.57416 14.7076 3.57422 14.8116C3.57373 14.9147 3.61178 15.0143 3.68092 15.0908C3.75005 15.1673 3.84528 15.2153 3.94793 15.2253C4.43256 15.3787 4.93504 15.4684 5.44276 15.4923C5.7311 15.4972 6.01869 15.4612 6.29696 15.3855C6.7107 15.3055 7.09776 15.1452 7.5115 15.0785C7.56937 15.0821 7.62738 15.0743 7.6822 15.0555C7.73702 15.0365 7.78758 15.0071 7.83098 14.9687C7.87438 14.9301 7.90977 14.8836 7.9351 14.8315C7.96045 14.7793 7.97524 14.7227 7.97864 14.6648C7.98605 14.5465 7.94692 14.43 7.86961 14.3403C7.7923 14.2505 7.68293 14.1945 7.56489 14.1843C7.12845 14.0601 6.68178 13.9752 6.23022 13.9307Z" fill="#F7F7F7"/>
<path fill-rule="evenodd" clip-rule="evenodd" d="M12.248 13.9307H11.6608C11.471 13.9412 11.283 13.9725 11.1002 14.0241C10.6464 14.1309 10.2727 14.3044 9.76551 14.4112C9.67018 14.4285 9.58395 14.4788 9.52187 14.5532C9.45978 14.6276 9.42578 14.7213 9.42578 14.8183C9.42578 14.9152 9.45978 15.0089 9.52187 15.0833C9.58395 15.1577 9.67018 15.208 9.76551 15.2253C10.2914 15.378 10.8335 15.4676 11.3805 15.4923C11.6908 15.4979 12.0005 15.462 12.3014 15.3855C12.7418 15.3055 13.1556 15.1452 13.6361 15.0785C13.7448 15.06 13.8433 15.0036 13.9144 14.9193C13.9856 14.8349 14.0245 14.7283 14.0245 14.618C14.0245 14.5079 13.9856 14.4011 13.9144 14.3168C13.8433 14.2325 13.7448 14.1761 13.6361 14.1576C13.1804 14.0441 12.7161 13.9683 12.248 13.9307Z" fill="#F7F7F7"/>
<path fill-rule="evenodd" clip-rule="evenodd" d="M23.284 11.5014C23.1421 11.5384 23.0037 11.5875 22.8702 11.6482C22.7382 11.7109 22.613 11.787 22.4965 11.8751C22.2162 12.0886 22.016 12.3422 21.7224 12.5558C21.6402 12.6011 21.5781 12.6757 21.5485 12.7647C21.5188 12.8538 21.5237 12.9507 21.5622 13.0363C21.6289 13.2498 21.8292 13.3833 21.976 13.3299C22.3946 13.3429 22.813 13.2934 23.2172 13.1831C23.4318 13.106 23.6342 12.9981 23.8178 12.8627C24.1114 12.6625 24.3517 12.4223 24.6453 12.2354C24.7408 12.1891 24.8148 12.1079 24.8521 12.0085C24.8893 11.9091 24.8869 11.7993 24.8454 11.7016C24.8229 11.5953 24.7606 11.5016 24.6713 11.4396C24.5821 11.3776 24.4725 11.352 24.365 11.3679C24.0004 11.3653 23.637 11.4102 23.284 11.5014Z" fill="#F7F7F7"/>
</g>
<defs>
<clipPath id="clip0_428_2883">
<rect width="32" height="32" fill="white"/>
</clipPath>
</defs>
</svg>
