<svg width="23" height="23" viewBox="0 0 23 23" fill="none" xmlns="http://www.w3.org/2000/svg">
<g clip-path="url(#clip0_390_2643)">
<path fill-rule="evenodd" clip-rule="evenodd" d="M11.1886 10.5629C11.2643 10.5452 11.3313 10.501 11.3773 10.4384C11.4234 10.3757 11.4456 10.2985 11.4398 10.2209C11.434 10.1434 11.4006 10.0704 11.3458 10.0153C11.291 9.96005 11.2182 9.92632 11.1406 9.92009C10.3727 9.95555 9.61534 9.73025 8.99167 9.28083C8.368 8.83137 7.9147 8.18417 7.70547 7.44444C7.42766 6.50755 7.40776 5.51306 7.6479 4.56582C7.6977 4.61031 7.75243 4.64894 7.81102 4.68096C8.79243 5.08312 9.86719 5.20101 10.9124 5.02114C11.9577 4.84128 12.9313 4.37092 13.7218 3.66385C13.897 4.04011 14.1161 4.3944 14.3742 4.71934C15.1227 5.439 16.3702 5.57333 16.6579 6.01472C16.6841 6.07489 16.7321 6.12291 16.7923 6.14906C16.6038 7.17261 16.0969 8.1105 15.344 8.829C14.591 9.5475 13.6304 10.0099 12.5991 10.1504C12.5361 10.1745 12.4837 10.2201 12.451 10.279C12.4182 10.3378 12.4071 10.4064 12.4196 10.4727C12.4322 10.5389 12.4676 10.5986 12.5197 10.6414C12.5718 10.6843 12.6373 10.7074 12.7047 10.7069C20.0739 9.43068 18.769 -0.31824 12.6471 0.00800358C3.97287 0.670086 5.55611 11.0235 11.1886 10.5629ZM16.8499 5.11276C15.9693 4.44459 15.0497 3.82939 14.096 3.27044C14.5216 2.82143 14.916 2.34374 15.2762 1.84073C15.752 2.24015 16.138 2.7355 16.4093 3.29438C16.6805 3.85326 16.8305 4.46307 16.8499 5.08397L16.8499 5.11276ZM14.7101 1.48569C13.808 2.52797 12.646 3.31263 11.3422 3.7598C10.4785 4.02848 8.55947 4.36432 7.93577 3.94211C7.94833 3.90148 7.94833 3.85801 7.93577 3.81738C9.08721 1.34176 12.8582 0.526155 14.7101 1.48569Z" fill="#3B3B3B"/>
<path fill-rule="evenodd" clip-rule="evenodd" d="M10.5739 6.89718C10.6034 6.92706 10.6385 6.95079 10.6772 6.96698C10.7159 6.98318 10.7574 6.99151 10.7994 6.99151C10.8414 6.99151 10.8828 6.98318 10.9216 6.96698C10.9603 6.95079 10.9955 6.92706 11.0249 6.89718C11.2647 6.66689 10.9481 5.43868 9.88302 5.53463C8.65482 5.66897 8.65482 7.01232 9.20176 6.93556C9.74866 6.85879 9.78709 5.87047 10.5739 6.89718Z" fill="#3B3B3B"/>
<path fill-rule="evenodd" clip-rule="evenodd" d="M14.9404 7.03157C15.1802 6.80129 14.614 5.28521 13.6546 5.41954C13.098 5.57307 12.4647 6.50383 12.8198 6.71492C12.8557 6.75358 12.9014 6.78196 12.9519 6.79713C13.0025 6.81231 13.0563 6.81375 13.1076 6.80129C13.1763 6.79414 13.2399 6.7617 13.286 6.71026C13.3321 6.65883 13.3575 6.59209 13.3571 6.52302C14.096 5.95689 14.403 7.53053 14.9404 7.03157Z" fill="#3B3B3B"/>
<path fill-rule="evenodd" clip-rule="evenodd" d="M13.1459 8.64357C13.19 8.5793 13.2096 8.50138 13.2012 8.42391C13.1928 8.34644 13.157 8.27453 13.1002 8.2212C13.0433 8.16786 12.9693 8.13663 12.8914 8.13314C12.8136 8.12965 12.737 8.15414 12.6757 8.20218C12.4839 8.33651 12.2727 8.30773 11.5915 8.30773C11.3927 8.36082 11.1815 8.34038 10.9965 8.25015C10.9482 8.19289 10.879 8.15718 10.8044 8.15089C10.7297 8.14459 10.6555 8.16822 10.5983 8.21657C10.541 8.26492 10.5054 8.33404 10.4991 8.40872C10.4927 8.4834 10.5164 8.55752 10.5647 8.61478C10.6923 8.84355 10.8782 9.03456 11.1034 9.16846C11.3285 9.30236 11.585 9.37443 11.8469 9.37734C12.109 9.38027 12.367 9.31395 12.5951 9.1851C12.8232 9.05625 13.0132 8.86944 13.1459 8.64357Z" fill="#3B3B3B"/>
<path fill-rule="evenodd" clip-rule="evenodd" d="M18.8072 20.5613C16.9819 20.7673 15.1857 21.1794 13.453 21.7895C12.9439 21.9574 12.4442 22.1528 11.9561 22.3748C12.0137 22.2021 12.647 13.95 12.2056 13.5182C12.1129 13.4087 11.9831 13.3369 11.841 13.3168C11.1597 13.2496 10.4113 11.6855 8.12755 10.9371C7.10659 10.648 6.05095 10.4995 4.98985 10.4957C4.63482 10.4957 3.92477 10.4285 3.75205 10.7643C3.73507 10.8107 3.72953 10.8605 3.73589 10.9094C3.74225 10.9584 3.76032 11.0051 3.78857 11.0456C3.81681 11.0861 3.8544 11.1192 3.89816 11.142C3.94191 11.1649 3.99054 11.1769 4.03991 11.177L4.90349 11.177C7.46546 11.8007 9.00072 12.0214 11.1309 13.7678C11.7834 14.3819 11.0541 16.3009 11.3228 21.9622C10.6242 21.6755 9.90182 21.4508 9.16385 21.2905C7.3695 20.6381 5.83424 20.8395 4.13586 20.6381L2.91724 20.6381C2.49505 20.6381 2.3799 20.6381 2.3799 19.9664C2.3799 19.0068 2.67736 18.4887 2.22638 18.4503C2.15208 18.4473 2.07934 18.4722 2.0225 18.5201C1.96567 18.5681 1.92885 18.6356 1.91932 18.7093C1.80418 19.7361 1.1325 21.0219 2.55262 21.4633C3.02213 21.5511 3.49628 21.6119 3.97274 21.6455C5.65193 21.9718 7.35032 21.7415 8.89518 22.1446C9.77456 22.5795 10.7287 22.8434 11.7067 22.9218C11.7067 23.0273 12.052 23.3152 18.7785 21.3385C18.9831 21.2408 19.171 21.1113 19.335 20.9547C19.3589 20.8854 19.3601 20.8104 19.3385 20.7403C19.3169 20.6702 19.2737 20.6089 19.2149 20.5651C19.1561 20.5213 19.085 20.4974 19.0116 20.4966C18.9384 20.4959 18.8667 20.5185 18.8072 20.5613Z" fill="#3B3B3B"/>
<path fill-rule="evenodd" clip-rule="evenodd" d="M5.76756 14.7652C5.6812 14.4006 5.55646 13.7385 5.0479 13.4411C4.0376 13.078 2.92759 13.1088 1.93899 13.5274C1.61941 13.8093 1.36905 14.1609 1.20737 14.5551C1.0457 14.9494 0.977046 15.3756 1.00674 15.8006C1.03644 16.2257 1.16369 16.6382 1.37862 17.0061C1.59355 17.3741 1.89038 17.6874 2.24605 17.9221C2.58263 18.2152 2.99217 18.4118 3.43134 18.4912C3.87051 18.5705 4.32297 18.5298 4.74085 18.3731C6.00744 17.6919 6.17057 16.1662 5.76756 14.7652ZM4.21311 17.452C4.11641 17.4948 4.01182 17.5169 3.90605 17.5169C3.80029 17.5169 3.69569 17.4948 3.599 17.452C1.52639 16.8954 1.40165 14.9859 2.38998 13.988C3.05206 14.3718 4.09796 13.8536 4.57773 14.1799C4.72166 14.295 5.42212 16.7803 4.21311 17.452Z" fill="#3B3B3B"/>
<path fill-rule="evenodd" clip-rule="evenodd" d="M2.80177 12.6163C2.9361 11.8103 3.06085 10.6973 2.5235 10.6973C2.43715 10.6973 2.322 10.6973 2.26443 10.7836C2.0804 11.3609 1.98339 11.9625 1.97656 12.5683C2.02455 13.24 2.7442 13.1152 2.80177 12.6163Z" fill="#3B3B3B"/>
<path fill-rule="evenodd" clip-rule="evenodd" d="M19.4985 11.5223C19.5944 11.9446 19.6616 12.2708 19.7192 12.5395C19.9591 13.1919 20.5924 13.0097 20.4773 12.2708C20.3446 11.7741 20.2547 11.2668 20.2085 10.7547C20.1895 10.4626 20.0787 10.1838 19.8919 9.95833C19.721 9.8142 19.5009 9.74194 19.2778 9.75679C18.1618 9.89767 17.0686 10.1814 16.025 10.6012C15.2766 10.8986 12.1868 12.4339 12.1196 12.9905C12.1154 13.0664 12.1387 13.1413 12.1852 13.2015C12.2317 13.2617 12.2983 13.3032 12.3728 13.3183C12.4473 13.3335 12.5248 13.3212 12.5911 13.2839C12.6573 13.2467 12.708 13.1868 12.7337 13.1152C14.5178 12.219 16.3891 11.5084 18.3183 10.9947C19.0188 10.8027 19.1819 10.1982 19.4985 11.5223Z" fill="#3B3B3B"/>
<path fill-rule="evenodd" clip-rule="evenodd" d="M19.8254 18.9779C19.7979 19.6555 19.8822 20.333 20.0748 20.9834C20.1612 21.0985 20.5067 21.1752 20.6602 20.7242C20.8094 20.1973 20.8742 19.6499 20.8521 19.1026C20.8115 19.0057 20.746 18.9212 20.6622 18.8578C20.5784 18.7944 20.4794 18.7543 20.375 18.7416C20.2707 18.729 20.1648 18.7441 20.0683 18.7856C19.9718 18.8271 19.888 18.8934 19.8254 18.9779Z" fill="#3B3B3B"/>
<path fill-rule="evenodd" clip-rule="evenodd" d="M21.8495 14.8422C21.7719 14.2542 21.4819 13.7149 21.0339 13.3261C20.9283 13.2302 20.8516 13.2493 20.6501 13.2398C20.51 13.2323 20.3699 13.2531 20.238 13.3009C20.1061 13.3487 19.9852 13.4225 19.8825 13.5181C19.4602 14.4776 18.3471 13.8443 17.5699 14.4775C17.3731 14.679 17.2256 14.9234 17.1391 15.1914C17.0524 15.4595 17.0291 15.7439 17.071 16.0224C17.259 16.8417 17.7107 17.5765 18.3568 18.1142C18.5539 18.3115 18.8004 18.452 19.0705 18.5212C19.3406 18.5905 19.6244 18.5858 19.8921 18.5076C21.2834 18.0951 21.9934 16.0416 21.8495 14.8422ZM19.1149 17.2794C19.0573 17.2027 18.3664 16.0416 18.1553 15.629C18.1553 15.3028 18.1553 15.1397 18.3568 15.0629C18.9133 14.8038 20.18 14.823 20.5925 13.6908C20.7924 13.884 20.9462 14.1197 21.0426 14.3805C21.139 14.6413 21.1753 14.9205 21.149 15.1973C21.0665 15.7631 20.8601 16.3037 20.5445 16.7804C20.1991 17.2794 19.5178 17.7304 19.1149 17.2794Z" fill="#3B3B3B"/>
</g>
<defs>
<clipPath id="clip0_390_2643">
<rect width="23" height="23" fill="white"/>
</clipPath>
</defs>
</svg>
