<svg width="24" height="24" viewBox="0 0 24 24" fill="none" xmlns="http://www.w3.org/2000/svg">
<g clip-path="url(#clip0_302_2432)">
<path d="M15.9463 7.81193C15.7806 6.87308 15.3738 5.99339 14.7657 5.2591C14.5852 5.03788 14.3954 4.77833 14.1766 4.55688C14.0174 4.38816 13.8305 4.24785 13.6241 4.142C13.5523 4.10511 13.4695 4.09618 13.3916 4.11693C13.3136 4.13767 13.2462 4.18661 13.2023 4.25426L13.0779 4.2535C12.1176 4.80269 11.157 5.39017 10.2727 6.01639C9.821 6.32944 9.3693 6.64249 8.92711 6.96517L7.63817 8.03871C6.97429 8.61842 6.27209 9.20748 5.627 9.84469C5.32853 10.1396 5.04914 10.4441 4.77902 10.7965C4.6339 10.2833 4.59165 9.74637 4.6547 9.21673C4.94108 7.61541 5.71164 6.14042 6.86248 4.99071C7.17998 4.68492 7.55137 4.44059 7.95786 4.27008C8.53253 4.06421 9.13891 3.96102 9.74932 3.96521C10.7162 3.96898 11.6792 4.0873 12.6182 4.31768C12.6843 4.32266 12.7501 4.30458 12.8044 4.26653C12.8587 4.22849 12.8981 4.17281 12.9161 4.10896C12.9342 4.03428 12.9226 3.9555 12.8837 3.88923C12.8448 3.82294 12.7817 3.77432 12.7077 3.7536C11.7373 3.48522 10.74 3.32507 9.73439 3.27608C9.03648 3.2466 8.33896 3.34282 7.6751 3.56017C5.63238 4.26544 3.89201 7.17366 3.61237 9.08595C3.48557 10.1015 3.64154 11.1324 4.0631 12.065C4.48149 12.9828 5.12111 13.7825 5.92461 14.3923C6.38058 14.7271 6.89515 14.9737 7.4418 15.1193C7.95557 15.266 8.48532 15.3497 9.01933 15.3682C10.5099 15.407 11.9752 14.9775 13.2089 14.1401C14.4506 13.3119 15.3519 12.0636 15.7473 10.6243C16.0124 9.71158 16.0803 8.75289 15.9463 7.81193ZM5.08052 11.5736C5.05446 11.5209 5.03239 11.4664 5.01453 11.4104C5.38075 11.0622 5.76956 10.7385 6.17842 10.4415C6.8804 9.89068 7.62029 9.39754 8.33155 8.89468C9.0428 8.39181 9.54318 7.94508 10.1298 7.47973C10.7164 7.01438 11.2936 6.52983 11.8899 6.02627C12.4864 5.5227 12.9092 5.22861 13.4283 4.86812C13.5091 4.93009 13.5854 4.99771 13.6567 5.07049C13.8468 5.28219 14.0175 5.53206 14.179 5.74358C14.6349 6.30394 14.9581 6.96027 15.1243 7.66336C14.106 8.27918 13.0691 8.83748 12.051 9.44374C11.2965 9.88287 10.5653 10.3607 9.86022 10.8755C8.74723 11.7181 7.72471 12.674 6.80911 13.7278L6.59933 13.6021C5.93374 13.0769 5.41129 12.3924 5.08029 11.6118L5.08052 11.5736ZM14.926 10.3418C14.5589 11.5632 13.7599 12.6094 12.6782 13.2851C11.606 13.962 10.3499 14.2887 9.08376 14.2202C8.63083 14.2116 8.18092 14.1445 7.74518 14.0206C7.62077 14.0199 7.50646 13.933 7.39186 13.8941C7.82478 13.5234 8.25751 13.1815 8.70933 12.8494C9.16115 12.5172 9.67016 12.2237 10.1219 11.901L11.5441 10.9528C12.7869 10.1117 14.0076 9.24516 15.2061 8.3529C15.2324 9.03983 15.1374 9.72597 14.9258 10.38L14.926 10.3418Z" fill="#3B3B3B"/>
<path d="M22.6282 19.8349C22.5911 19.6256 22.5347 19.4202 22.4596 19.2214C22.3314 18.8807 22.1597 18.558 21.9488 18.2612C21.6606 17.839 21.3432 17.4373 20.9991 17.0592C20.496 16.506 19.9556 15.9878 19.3817 15.5085C18.5914 14.853 17.7624 14.2546 16.9244 13.5796C17.1795 13.0967 17.3908 12.592 17.5556 12.0713C17.7981 11.2897 17.9821 10.4911 18.1061 9.68219C18.2612 8.9044 18.3365 8.11284 18.3311 7.31977C18.327 6.76633 18.2368 6.2169 18.0635 5.69124C17.9155 5.21624 17.736 4.75158 17.5265 4.3003C17.3788 3.98121 17.1978 3.67858 16.9866 3.39742C16.6272 2.92758 16.2046 2.50956 15.7309 2.15522C15.029 1.652 14.2702 1.23301 13.4704 0.906881C12.9135 0.659955 12.339 0.454915 11.7516 0.293471C11.128 0.127391 10.4843 0.0493703 9.83901 0.0616773C9.04503 0.100011 8.26079 0.253171 7.51072 0.516385C6.77377 0.7788 6.06354 1.11093 5.38969 1.50828C4.81247 1.83025 4.26843 2.20839 3.76546 2.63719C1.61034 4.50932 1.145 8.62158 1.11355 9.07118C1.00363 10.2874 1.1729 11.5126 1.60844 12.6534C1.72307 12.9429 1.85559 13.2249 2.00522 13.4979C2.22299 13.8821 2.46952 14.2568 2.72562 14.6317C3.20389 15.375 3.79374 16.0402 4.47445 16.6042C4.94962 16.9866 5.48897 17.2815 6.06733 17.4752C6.72769 17.6952 7.40534 17.8594 8.09317 17.9661C8.56362 18.0478 9.04139 18.0796 9.51852 18.0609C10.2609 18.0175 10.9949 17.8805 11.703 17.6532C12.3902 17.4171 13.0576 17.1268 13.6988 16.7849C13.8274 16.9388 13.9478 17.0992 14.0596 17.2656C14.4672 17.8998 14.7884 18.5812 15.1676 19.1864C15.4342 19.6041 15.7258 20.0054 16.0407 20.388C16.3379 20.7639 16.6552 21.1237 16.9911 21.4656C17.9163 22.3356 19.0844 22.9035 20.3402 23.0939C20.591 23.1405 20.8485 23.1366 21.0977 23.0823C21.3469 23.0281 21.5827 22.9245 21.7914 22.7778C22.0001 22.6311 22.1773 22.4441 22.3126 22.2279C22.448 22.0117 22.5387 21.7707 22.5796 21.5189C22.6194 21.3519 22.6492 21.1827 22.6688 21.0123C22.6792 20.8434 22.6802 20.6741 22.6719 20.505C22.6767 20.2808 22.6621 20.0566 22.6282 19.8349ZM21.5095 21.2348C21.4592 21.4772 21.3171 21.6906 21.1127 21.8303C20.9084 21.97 20.658 22.0251 20.4139 21.9842C19.4115 21.8527 18.4695 21.4311 17.7035 20.7714C17.3678 20.4694 17.0502 20.1479 16.7523 19.8086C16.4369 19.4799 16.1449 19.1295 15.8783 18.7601C15.4608 18.1642 15.0821 17.5016 14.6455 16.896C14.5297 16.7423 14.4061 16.5946 14.2751 16.4535L14.4 16.3681C14.613 16.2174 14.8154 16.0524 15.0059 15.8742C15.0655 15.8109 15.0989 15.7273 15.0994 15.6403C15.1 15.5533 15.0676 15.4693 15.0088 15.4052C14.9482 15.3441 14.8658 15.3095 14.7797 15.309C14.6936 15.3084 14.6108 15.342 14.5494 15.4024C14.3848 15.553 14.2079 15.6896 14.0206 15.8107C13.8361 15.9397 13.6436 16.0568 13.4442 16.1613C12.8246 16.4714 12.1833 16.7361 11.5254 16.9534C10.8595 17.1528 10.1703 17.2645 9.47541 17.2854C8.94738 17.2954 8.42025 17.2376 7.90697 17.1132C7.37391 17.0081 6.85001 16.8609 6.34018 16.673C5.74017 16.4526 5.19414 16.1068 4.73862 15.6584C4.26774 15.1925 3.85335 14.6728 3.50398 14.1101C3.28598 13.7642 3.05841 13.4183 2.85979 13.0342C2.73601 12.7975 2.62568 12.554 2.52929 12.3049C2.16789 11.2964 2.0403 10.219 2.15617 9.15411C2.62736 4.08488 5.20896 2.89483 5.9484 2.47827C6.55721 2.11684 7.20015 1.81625 7.86788 1.58083C8.51691 1.34037 9.19854 1.19934 9.88971 1.16254C10.4278 1.15095 10.9651 1.21219 11.4868 1.34456C12.0268 1.47918 12.5566 1.65191 13.0723 1.86145C13.6842 2.10181 14.2747 2.39354 14.8374 2.73353C15.3806 3.04411 15.8642 3.44889 16.2656 3.92894C16.4457 4.15529 16.6014 4.40003 16.7301 4.6591C16.9391 5.07124 17.1188 5.49767 17.2678 5.93519C17.4214 6.38028 17.5119 6.84471 17.5369 7.31492C17.5554 8.06118 17.5028 8.80751 17.3797 9.54377C17.2939 10.1875 17.1718 10.8256 17.0139 11.4556C16.8557 12.087 16.6274 12.6987 16.3329 13.2793C16.1766 13.6123 15.9922 13.9314 15.7816 14.2329C15.5743 14.5224 15.3421 14.7932 15.0876 15.0421C15.0598 15.0683 15.0374 15.0998 15.0217 15.1347C15.0061 15.1695 14.9974 15.2071 14.9963 15.2453C14.994 15.3224 15.0225 15.3974 15.0755 15.4536C15.1284 15.5097 15.2015 15.5425 15.2787 15.5448C15.3559 15.5471 15.4308 15.5186 15.4869 15.4657C15.7698 15.1948 16.0309 14.902 16.2675 14.59C16.3736 14.4471 16.4606 14.2945 16.5573 14.1419C17.3284 14.7974 18.0999 15.4146 18.8327 16.0698C19.3506 16.548 19.8335 17.0627 20.2779 17.6099C20.5761 17.9708 20.8518 18.3496 21.1036 18.7442C21.254 18.9879 21.3745 19.249 21.4626 19.5215C21.51 19.6787 21.5473 19.8387 21.5744 20.0007C21.583 20.1538 21.5821 20.3071 21.5716 20.4601L21.5095 21.2348Z" fill="#3B3B3B"/>
</g>
<defs>
<clipPath id="clip0_302_2432">
<rect width="23" height="23" fill="white" transform="translate(0.140625) rotate(0.35)"/>
</clipPath>
</defs>
</svg>
