<svg width="317" height="312" viewBox="0 0 317 312" fill="none" xmlns="http://www.w3.org/2000/svg">
<path d="M247.185 178.42C247.185 153.778 94.7107 164.492 69.0535 151.297C75.6512 165.225 232.523 152.763 242.786 176.954C251.826 198.262 -59.3073 202.547 10.4097 270.051C56.5918 314.767 172.414 277.381 172.414 277.381C172.414 277.381 65.3891 308.902 16.2752 270.051C-68.7817 202.767 247.184 208.475 247.185 178.42Z" fill="url(#paint0_linear_428_2881)"/>
<path fill-rule="evenodd" clip-rule="evenodd" d="M80.783 138.835L79.316 138.102L74.1847 135.536L73.4526 135.17L69.0535 151.297L80.783 138.835ZM74.1847 136.636L69.7864 149.831L70.3241 149.264L71.4037 148.125L80.1702 138.875L74.1847 136.636Z" fill="url(#paint1_linear_428_2881)"/>
<path d="M135.029 0.289383L73.4526 135.17L74.1847 135.536L135.402 1.22206L140.563 3.40364C116.943 54.6849 95.4908 105.125 79.316 138.102L80.783 138.835L141.626 3.22157L135.029 0.289383Z" fill="url(#paint2_linear_428_2881)"/>
<path d="M70.6991 148.365L70.3241 149.264L71.4037 148.125L75.2505 142.762L71.4037 147.498L70.6991 148.365Z" fill="url(#paint3_linear_428_2881)"/>
<path d="M73.0325 141.904L69.7864 149.831L70.3241 149.264L70.6991 148.365L71.0541 147.382L73.0325 141.904Z" fill="url(#paint4_linear_428_2881)"/>
<path d="M71.0541 147.382L70.6991 148.365L71.4037 147.498L74.1847 141.767L71.0541 147.382Z" fill="url(#paint5_linear_428_2881)"/>
<path fill-rule="evenodd" clip-rule="evenodd" d="M134.919 0L135.255 0.149511L135.165 0.351853L135.229 0.380712L134.908 1.08321L134.508 0.900555L134.919 0ZM136.451 1.1623L135.626 0.79578L135.805 0.39386L136.63 0.760383L136.451 1.1623ZM135.29 0.93622L135.595 1.06495L135.508 1.27049L135.602 1.31326L135.283 2.0128L134.883 1.83039L135.29 0.93622ZM136.499 1.92457L135.854 1.65187L136.025 1.24674L136.67 1.51944L136.499 1.92457ZM138.925 2.26187L137.551 1.651L137.729 1.24908L139.104 1.85995L138.925 2.26187ZM138.434 2.74266L137.359 2.28817L137.53 1.88304L138.605 2.33754L138.434 2.74266ZM140.849 3.11709L140.025 2.75057L140.203 2.34865L141.028 2.71517L140.849 3.11709ZM139.94 3.37896L139.294 3.10626L139.466 2.70113L140.111 2.97383L139.94 3.37896ZM141.489 3.16L141.425 3.13155L141.108 3.83787L141.51 4.01791L141.917 3.11024L141.578 2.95952L141.489 3.16ZM140.457 3.35478L140.363 3.31164L140.041 4.01237L140.44 4.19627L140.858 3.28946L140.541 3.15563L140.457 3.35478ZM133.625 3.89322L131.701 8.10824L131.301 7.92559L133.225 3.71056L133.625 3.89322ZM134.008 4.811L132.094 9.00832L131.694 8.82591L133.607 4.62859L134.008 4.811ZM137.94 10.9011L139.841 6.66316L140.242 6.8432L138.341 11.0811L137.94 10.9011ZM136.826 11.0188C137.467 9.61833 138.109 8.21664 138.753 6.81403L139.152 6.99752C138.509 8.39993 137.867 9.80144 137.226 11.2017L136.826 11.0188ZM129.135 13.7283L125.928 20.7533L125.528 20.5706L128.735 13.5456L129.135 13.7283ZM129.544 14.6047L126.355 21.6003L125.955 21.4178L129.144 14.4223L129.544 14.6047ZM132.235 23.6149L135.404 16.5517L135.806 16.7317L132.637 23.7949L132.235 23.6149ZM131.08 23.6468C132.137 21.3132 133.199 18.9731 134.267 16.6283L134.667 16.8105C133.6 19.1551 132.538 21.4949 131.481 23.8282L131.08 23.6468ZM123.362 26.3733L121.438 30.5883L121.038 30.4057L122.962 26.1907L123.362 26.3733ZM123.805 27.1967L121.892 31.394L121.491 31.2116L123.404 27.0143L123.805 27.1967ZM127.799 33.5034L129.7 29.2654L130.102 29.4455L128.2 33.6834L127.799 33.5034ZM126.64 33.4823C127.271 32.08 127.905 30.6746 128.54 29.2663L128.941 29.4472C128.306 30.8554 127.672 32.2607 127.041 33.6628L126.64 33.4823ZM120.155 33.3984L119.514 34.8034L119.114 34.6207L119.755 33.2157L120.155 33.3984ZM120.616 34.1922L119.979 35.5913L119.578 35.4089L120.216 34.0098L120.616 34.1922ZM124.744 37.6995L125.376 36.292L125.778 36.4723L125.145 37.8797L124.744 37.6995ZM125.898 37.7413L126.531 36.3287L126.933 36.5087L126.299 37.9213L125.898 37.7413ZM118.231 37.6134L116.307 41.8284L115.907 41.6458L117.831 37.4307L118.231 37.6134ZM118.703 38.3895L116.79 42.5868L116.39 42.4044L118.303 38.2071L118.703 38.3895ZM121.59 44.7326C122.218 43.3298 122.849 41.9227 123.482 40.5117L123.883 40.6918C123.25 42.1027 122.619 43.5097 121.991 44.9124L121.59 44.7326ZM122.729 44.8045L124.63 40.5666L125.031 40.7466L123.13 44.9845L122.729 44.8045ZM113.741 47.4484L110.534 54.4735L110.134 54.2908L113.341 47.2658L113.741 47.4484ZM114.24 48.1833L111.051 55.1788L110.651 54.9964L113.839 48.0008L114.24 48.1833ZM115.928 57.3996C116.969 55.0677 118.017 52.72 119.073 50.3585L119.474 50.538C118.419 52.8994 117.37 55.247 116.329 57.5789L115.928 57.3996ZM117.025 57.5183L120.194 50.4551L120.595 50.6351L117.426 57.6983L117.025 57.5183ZM107.968 60.0935L106.044 64.3085L105.644 64.1259L107.568 59.9108L107.968 60.0935ZM108.5 60.7752L106.587 64.9725L106.187 64.7901L108.1 60.5928L108.5 60.7752ZM111.532 67.2534L113.416 63.0295L113.818 63.2087L111.933 67.4326L111.532 67.2534ZM112.588 67.4068L114.49 63.1689L114.891 63.3489L112.99 67.5868L112.588 67.4068ZM104.761 67.1185L104.12 68.5235L103.72 68.3409L104.361 66.9359L104.761 67.1185ZM105.312 67.7707L104.674 69.1698L104.274 68.9874L104.912 67.5883L105.312 67.7707ZM109.648 71.477L110.276 70.0687L110.678 70.2479L110.049 71.6562L109.648 71.477ZM110.687 71.6447L111.321 70.2321L111.722 70.4121L111.088 71.8248L110.687 71.6447ZM102.837 71.3335L100.913 75.5486L100.513 75.3659L102.437 71.1509L102.837 71.3335ZM103.399 71.968L101.486 76.1654L101.086 75.9829L102.999 71.7856L103.399 71.968ZM106.506 78.5134C107.131 77.1144 107.76 75.7069 108.392 74.2913L108.793 74.4706C108.161 75.8862 107.533 77.2937 106.908 78.6928L106.506 78.5134ZM107.518 78.7079L109.419 74.47L109.821 74.65L107.919 78.888L107.518 78.7079ZM98.3471 81.1686L95.1401 88.1936L94.74 88.011L97.947 80.9859L98.3471 81.1686ZM98.9353 81.7618L95.7469 88.7573L95.3467 88.5749L98.5351 81.5794L98.9353 81.7618ZM100.835 91.174C101.875 88.8594 102.926 86.5153 103.988 84.1439L104.39 84.3236C103.328 86.6951 102.277 89.0395 101.237 91.3543L100.835 91.174ZM101.814 91.4217L104.983 84.3585L105.384 84.5385L102.215 91.6017L101.814 91.4217ZM92.5744 93.8137L90.6501 98.0287L90.25 97.846L92.1743 93.631L92.5744 93.8137ZM93.1962 94.3537L91.2832 98.551L90.883 98.3686L92.796 94.1713L93.1962 94.3537ZM96.3989 101.012C97.0292 99.6203 97.664 98.2156 98.3033 96.7985L98.7042 96.9794C98.0648 98.3966 97.4299 99.8015 96.7996 101.193L96.3989 101.012ZM97.3776 101.31L99.2789 97.0723L99.6802 97.2523L97.7789 101.49L97.3776 101.31ZM89.3673 100.839L88.7259 102.244L88.3258 102.061L88.9672 100.656L89.3673 100.839ZM90.0079 101.349L89.3702 102.748L88.97 102.566L89.6076 101.167L90.0079 101.349ZM94.4882 105.222C94.7002 104.756 94.9128 104.288 95.1258 103.819L95.5263 104.001C95.3132 104.47 95.1006 104.938 94.8886 105.404L94.4882 105.222ZM95.4762 105.548L96.11 104.135L96.5113 104.316L95.8775 105.728L95.4762 105.548ZM87.4431 105.054L85.5188 109.269L85.1187 109.086L87.043 104.871L87.4431 105.054ZM88.0948 105.547L86.1818 109.744L85.7816 109.561L87.6946 105.364L88.0948 105.547ZM91.2848 112.233C91.921 110.848 92.5626 109.446 93.2095 108.029L93.6096 108.211C92.9626 109.629 92.3208 111.031 91.6845 112.417L91.2848 112.233ZM92.3073 112.611L94.2087 108.373L94.61 108.553L92.7086 112.791L92.3073 112.611ZM82.9531 114.889L79.7461 121.914L79.346 121.731L82.553 114.706L82.9531 114.889ZM83.6311 115.34L80.4427 122.336L80.0425 122.153L83.2309 115.158L83.6311 115.34ZM85.4477 124.805C86.516 122.534 87.6025 120.205 88.7067 117.823L89.1058 118.008C88.0013 120.391 86.9143 122.72 85.8457 124.992L85.4477 124.805ZM86.6033 125.325L89.7722 118.262L90.1735 118.442L87.0046 125.505L86.6033 125.325ZM77.1804 127.534L75.2561 131.749L74.856 131.566L76.7803 127.351L77.1804 127.534ZM77.892 127.932L75.979 132.13L75.5788 131.947L77.4918 127.75L77.892 127.932ZM80.8038 134.546C81.4623 133.185 82.1289 131.798 82.8036 130.385L83.2005 130.575C82.5255 131.989 81.8585 133.376 81.1997 134.737L80.8038 134.546ZM82.1668 135.214L84.0682 130.976L84.4695 131.156L82.5681 135.394L82.1668 135.214ZM73.66 135.245L73.9733 134.559L73.5732 134.376L73.2451 135.095L73.1487 135.448L73.5731 135.564L73.66 135.245ZM74.7036 134.928L74.3848 135.627L74.2935 135.586L74.1933 135.786L74.0711 135.725L74.1692 135.529L74.1071 135.501L74.0101 135.695L73.9186 135.649L74.0139 135.458L73.9846 135.445L74.3034 134.745L74.7036 134.928ZM73.7965 135.588L73.644 135.512L73.8407 135.118L73.9932 135.195L73.7965 135.588ZM75.2623 136.321L74.6209 136L74.8176 135.607L75.459 135.927L75.2623 136.321ZM74.0482 136.35L74.3864 136.477L74.3111 136.678L74.3933 136.706L74.3017 136.981L73.8844 136.841L74.0482 136.35ZM77.1865 137.283L76.1175 136.748L76.3142 136.355L77.3832 136.889L77.1865 137.283ZM75.4793 137.355L74.7312 137.075L74.8852 136.663L75.6334 136.943L75.4793 137.355ZM73.2065 136.908L72.6566 138.924L72.2323 138.808L72.7822 136.792L73.2065 136.908ZM77.7239 138.195L76.4769 137.728L76.631 137.316L77.878 137.783L77.7239 138.195ZM78.6832 138.031L78.0417 137.711L78.2384 137.317L78.8799 137.638L78.6832 138.031ZM79.1186 138.005C79.23 137.778 79.3416 137.55 79.4535 137.321L79.8486 137.514C79.7688 137.678 79.6891 137.84 79.6095 138.003L79.7505 138.073L79.5779 138.418L79.6238 138.436L79.4697 138.848L78.7215 138.568L78.8756 138.156L79.1113 138.244L79.2087 138.049L79.1186 138.005ZM79.3467 138.117L79.2561 138.298L79.3848 138.346L79.4694 138.177L79.3467 138.117ZM73.9352 138.08L73.3854 139.729L72.9681 139.59L73.5179 137.941L73.9352 138.08ZM80.6762 138.536L80.8993 138.039L81.3006 138.219L80.9685 138.959L80.6988 139.246L80.3938 138.959L80.1472 139.219L79.828 138.916L80.0106 138.723L80.0653 138.775L80.082 138.731L79.7984 138.589L79.9951 138.195L80.3007 138.348L80.1573 138.635L80.4147 138.731L80.5452 138.47L80.6762 138.536ZM78.0016 140.843L79.0974 139.687L79.4167 139.99L79.4128 139.994L79.7213 140.284L78.2551 141.842L77.9349 141.54L78.3132 141.138L78.0016 140.843ZM71.9234 141.612L71.007 144.971L70.5826 144.856L71.4991 141.496L71.9234 141.612ZM74.3181 141.98L74.3115 141.992L74.1039 141.876L73.9289 141.791L73.9337 141.781L73.9274 141.777L73.9926 141.66L74.3825 141.863L74.3246 141.983L74.3181 141.98ZM72.6523 141.929L71.736 144.678L71.3188 144.538L72.2351 141.79L72.6523 141.929ZM73.1935 142.091L73.1683 142.153L72.7613 141.986L72.8289 141.821L73.2393 141.979L73.1981 142.093L73.1935 142.091ZM73.6709 143.141L73.6593 143.161L73.2752 142.947L73.6665 142.245L73.7808 142.309L74.0928 142.46L73.7452 143.177L73.6709 143.141ZM74.7142 144.312L76.5405 142.385L76.8598 142.687L75.0334 144.614L74.7142 144.312ZM72.5254 142.661L72.6195 142.4L73.0332 142.55L72.7859 143.234L72.7332 143.215L72.4921 143.804L72.0851 143.637L72.4908 142.647L72.5254 142.661ZM75.3427 142.997L75.3411 142.999L75.3079 142.972L74.9917 142.746L75.0053 142.727L74.9997 142.722L75.0799 142.623L75.4292 142.89L75.3491 143.002L75.3427 142.997ZM74.9953 143.425L75.0205 143.394L74.6791 143.117L74.1983 143.709L74.2631 143.761L74.1903 143.863L74.5477 144.119L75.0285 143.449L74.9953 143.425ZM76.3002 143.919L73.8566 146.515L73.5363 146.214L75.98 143.617L76.3002 143.919ZM72.5058 145.23L72.4854 145.267L72.1246 145.065L72.044 145.288L71.9049 145.238L71.5943 145.996L71.8253 146.125L71.8432 146.088L72.2389 146.28L72.2061 146.348L72.456 146.551L72.2162 146.846L72.2734 146.887L73.0371 146.081L72.7477 145.874L72.9271 145.624L72.7557 145.484L73.5571 144.498L73.8985 144.775L73.7795 144.922L73.9065 145.013L73.2831 145.882L73.5723 146.156L72.4765 147.312L72.3458 147.188L71.9831 147.694L71.6257 147.438L71.888 147.072L71.6524 146.881L71.5996 146.855L71.5723 146.904L71.4792 146.852L71.467 146.886L71.0534 146.737L71.0693 146.692L70.8678 146.61L71.5441 144.959L71.676 145.013L72.0425 143.998L72.4562 144.147L72.1808 144.91L72.7534 143.883L72.8795 143.953L72.886 143.94L73.2817 144.132L72.7023 145.325L72.5058 145.23ZM70.1276 148.418L69.9459 148.861L70.072 148.399L70.1276 148.418ZM70.5507 148.545L70.4892 148.695L70.7357 148.798L70.5918 148.661L70.6594 148.59L70.5507 148.545ZM70.749 148.496L70.7973 148.445L70.7547 148.41L70.6276 148.357L70.5969 148.432L70.749 148.496ZM70.8389 148.445L70.8942 148.468L70.902 148.45L70.775 148.397L70.7656 148.389L70.9059 148.44L70.9133 148.419L70.7142 148.347L70.6523 148.297L70.6753 148.241L70.7749 148.277L70.9432 148.413L71.0312 148.305L70.972 148.257L70.9873 148.214L70.8659 148.17L70.6899 148.027L70.658 148.067L70.6125 148.048L70.6584 147.91L70.9873 148.029L71.1025 148.123L70.9967 148.234L71.3159 148.537L71.4508 148.394L71.1726 148.131L71.2553 148.029L71.5408 148.3L71.7459 148.083L71.4439 147.797L71.501 147.727L71.1596 147.449L71.1053 147.516L70.8238 147.414L70.8513 147.332L71.172 147.448L71.2462 147.489L71.276 147.436L71.312 147.453L71.5597 147.654L71.6545 147.538L71.636 147.522L71.6595 147.474L71.4534 147.374L71.3131 147.26L71.2864 147.293L71.2638 147.282L71.2446 147.322L71.178 147.298L70.9273 147.158L70.9044 147.199L70.8966 147.196L71.003 146.877L70.5857 146.738L70.2523 147.738L70.2738 147.659L69.8495 147.543L69.2996 149.559L69.6164 149.646L69.5778 149.761L69.946 149.982L69.9572 149.97L69.8281 149.848L69.9899 149.914L69.9907 149.912L70.002 149.923L70.0693 149.852L70.0304 149.815L70.0575 149.749L70.0469 149.745L70.0705 149.674L70.1589 149.758L70.2709 149.639L69.9516 149.337L69.8396 149.455L69.9831 149.591L69.7665 149.519L69.9285 148.925L70.1835 149.029L70.1602 149.085L70.1816 149.094L70.1533 149.124L70.2404 149.207L70.1289 149.16L70.1211 149.179L70.2818 149.246L70.4725 149.427L70.5062 149.391L70.409 149.299L70.527 149.348L70.5349 149.33L70.3676 149.26L70.2018 149.103L70.5415 149.244L70.5962 149.296L70.7311 149.154L70.4708 148.907L70.6755 148.993L70.7508 148.812L70.911 148.964L71.136 148.727L70.8831 148.487L70.8844 148.485L70.8632 148.468L70.8389 148.445ZM70.7824 147.538L70.7273 147.704L70.9017 147.767L70.9541 147.702L71.2586 147.95L71.3051 147.885L71.3188 147.894L71.3916 147.818L71.1898 147.654L71.1796 147.682L70.7824 147.538ZM70.6431 148.319L70.6423 148.321L70.6478 148.323L70.6431 148.319ZM71.9017 148.592L70.4355 150.15L70.1152 149.848L71.5814 148.29L71.9017 148.592ZM70.4277 149.474L70.3605 149.545L70.0413 149.242L70.1085 149.171L70.4277 149.474ZM69.0835 150.944L68.933 150.903L68.8199 151.318L68.8548 151.391C68.9583 151.61 69.0945 151.82 69.2607 152.022L69.5487 151.784C69.5653 151.792 69.582 151.8 69.5987 151.808L69.7836 151.409C69.6583 151.35 69.5357 151.292 69.4158 151.233L69.458 151.188L69.3412 151.078L69.3573 151.019L69.246 150.989L69.1377 150.887L69.0835 150.944ZM72.624 152.506C73.931 152.934 75.4031 153.332 77.0261 153.703L76.928 154.131C75.2953 153.758 73.8098 153.357 72.4873 152.924L72.624 152.506ZM76.0266 155.18C74.3646 154.762 72.9515 154.299 71.8209 153.784L72.0031 153.384C73.1011 153.884 74.4867 154.339 76.1339 154.754L76.0266 155.18ZM83.0605 154.858C85.4051 155.237 87.9433 155.581 90.6494 155.897L90.5984 156.333C87.8875 156.018 85.3426 155.672 82.9903 155.292L83.0605 154.858ZM89.2952 157.279C86.6364 157.002 84.1817 156.694 81.964 156.347L82.0318 155.913C84.2404 156.258 86.6874 156.565 89.3408 156.841L89.2952 157.279ZM96.744 156.534C98.2449 156.675 99.7847 156.81 101.36 156.939L101.324 157.377C99.7472 157.248 98.2057 157.114 96.7028 156.972L96.744 156.534ZM104.376 157.176C104.885 157.214 105.398 157.252 105.914 157.289L105.882 157.728C105.366 157.69 104.853 157.652 104.343 157.614L104.376 157.176ZM99.7011 158.154C98.172 158.05 96.683 157.939 95.2383 157.823L95.2736 157.384C96.7164 157.501 98.2036 157.611 99.7311 157.715L99.7011 158.154ZM108.983 157.502C110.491 157.603 112.023 157.701 113.577 157.795L113.55 158.234C111.996 158.14 110.463 158.042 108.954 157.941L108.983 157.502ZM104.193 158.44C103.69 158.41 103.191 158.38 102.695 158.349L102.722 157.91C103.217 157.941 103.717 157.971 104.219 158.001L104.193 158.44ZM119.691 158.143C122.204 158.278 124.761 158.407 127.354 158.532L127.333 158.971C124.739 158.846 122.181 158.717 119.668 158.582L119.691 158.143ZM111.615 158.837C110.097 158.763 108.603 158.687 107.136 158.607L107.16 158.168C108.626 158.247 110.119 158.324 111.637 158.397L111.615 158.837ZM125.017 159.408C122.495 159.312 120.013 159.212 117.581 159.108L117.6 158.669C120.031 158.773 122.513 158.872 125.034 158.969L125.017 159.408ZM133.479 158.817C135.005 158.885 136.541 158.954 138.084 159.021L138.065 159.461C136.522 159.393 134.986 159.325 133.459 159.256L133.479 158.817ZM141.143 159.154L142.679 159.221L142.66 159.66L141.124 159.594L141.143 159.154ZM135.422 159.79C133.929 159.737 132.444 159.684 130.97 159.63L130.986 159.19C132.46 159.244 133.944 159.297 135.437 159.351L135.422 159.79ZM145.816 159.355C147.321 159.42 148.831 159.485 150.342 159.55L150.323 159.99C149.331 159.947 148.34 159.904 147.351 159.862L147.338 160.22C145.843 160.165 144.352 160.11 142.866 160.057L142.881 159.617C143.829 159.651 144.779 159.686 145.731 159.721L145.747 159.352L145.816 159.355ZM139.898 159.95L138.409 159.897L138.425 159.457L139.914 159.511L139.898 159.95ZM156.473 159.819C159.031 159.933 161.589 160.049 164.138 160.171L164.117 160.61C162.992 160.556 161.866 160.504 160.738 160.452L160.725 160.754C158.248 160.646 155.765 160.545 153.286 160.447L153.303 160.008C154.355 160.049 155.407 160.091 156.459 160.134L156.473 159.819ZM170.269 160.473C171.804 160.552 173.334 160.633 174.856 160.716L174.84 161.011C175.101 161.026 175.362 161.041 175.623 161.056L175.598 161.495C175.327 161.48 175.056 161.464 174.784 161.449C174.562 161.436 174.339 161.424 174.115 161.411L174.132 161.117C173.141 161.064 172.147 161.011 171.151 160.959L171.136 161.25C169.655 161.173 168.169 161.098 166.678 161.027L166.699 160.587C167.887 160.644 169.072 160.703 170.254 160.764L170.269 160.473ZM177.931 160.889C178.443 160.919 178.954 160.949 179.464 160.979L179.446 161.285C180.466 161.348 181.482 161.414 182.492 161.481L182.512 161.164C184.061 161.261 185.598 161.361 187.123 161.466L187.093 161.904C185.755 161.813 184.407 161.725 183.051 161.639L183.029 161.958C181.552 161.858 180.064 161.763 178.566 161.671L178.585 161.368C178.359 161.355 178.132 161.341 177.905 161.328L177.931 160.889ZM193.246 161.912C195.848 162.115 198.401 162.331 200.895 162.563L200.855 163.001C199.4 162.866 197.925 162.736 196.432 162.611L196.392 163.027C193.97 162.799 191.494 162.587 188.975 162.391L189.01 161.952C190.426 162.063 191.829 162.178 193.216 162.298L193.246 161.912ZM207.004 163.18C208.549 163.348 210.065 163.525 211.55 163.709L211.495 164.146C210.013 163.961 208.499 163.785 206.956 163.617L207.004 163.18ZM206.729 164.159C205.286 163.976 203.815 163.801 202.318 163.635L202.367 163.198C203.866 163.364 205.339 163.539 206.784 163.722L206.729 164.159ZM214.627 164.11C215.132 164.179 215.633 164.248 216.129 164.319L216.067 164.755C215.571 164.684 215.072 164.614 214.568 164.545L214.627 164.11ZM211.156 164.76C210.675 164.69 210.191 164.621 209.702 164.553L209.763 164.117C210.252 164.186 210.738 164.255 211.22 164.325L211.156 164.76ZM218.478 165.972C217.068 165.707 215.612 165.454 214.114 165.213L214.184 164.779C215.685 165.02 217.145 165.274 218.559 165.54L218.478 165.972ZM219.182 164.779C220.738 165.025 222.245 165.283 223.701 165.554L223.62 165.987C222.169 165.716 220.665 165.459 219.114 165.213L219.182 164.779ZM231.453 169.277C229.315 168.525 226.923 167.839 224.31 167.212L224.412 166.784C227.037 167.414 229.444 168.104 231.599 168.862L231.453 169.277ZM229.738 166.831C232.451 167.485 234.908 168.202 237.068 168.993L236.917 169.406C234.777 168.622 232.336 167.91 229.635 167.259L229.738 166.831ZM240.486 174.158C239.527 173.257 238.316 172.414 236.872 171.626L237.083 171.24C238.55 172.041 239.794 172.904 240.787 173.837L240.486 174.158ZM242.697 171.644C244.192 172.582 245.365 173.606 246.167 174.728L245.809 174.984C245.051 173.922 243.927 172.934 242.464 172.017L242.697 171.644ZM242.583 177.04C242.493 176.827 242.392 176.618 242.278 176.411L242.664 176.199C242.784 176.419 242.892 176.642 242.988 176.868C243.104 177.141 243.173 177.414 243.193 177.688L242.754 177.721C242.738 177.499 242.682 177.272 242.583 177.04ZM247.351 177.616C247.387 177.88 247.405 178.148 247.405 178.42C247.405 178.68 247.382 178.938 247.337 179.193L246.904 179.118C246.945 178.887 246.965 178.655 246.965 178.42C246.965 178.167 246.948 177.919 246.915 177.674L247.351 177.616ZM237.683 182.231C239.384 181.496 240.678 180.753 241.535 180.001L241.825 180.332C240.918 181.128 239.577 181.892 237.858 182.635L237.683 182.231ZM245.947 181.929C245.099 182.915 243.896 183.852 242.379 184.748L242.155 184.37C243.647 183.488 244.807 182.579 245.614 181.642L245.947 181.929ZM225.009 186.071C227.635 185.453 230.013 184.831 232.115 184.201L232.241 184.622C230.129 185.255 227.742 185.88 225.109 186.499L225.009 186.071ZM236.894 187.333C234.773 188.159 232.364 188.954 229.696 189.725L229.574 189.302C232.233 188.535 234.629 187.743 236.734 186.923L236.894 187.333ZM214.92 188.206C216.388 187.922 217.809 187.638 219.182 187.354L219.271 187.785C217.897 188.07 216.473 188.354 215.004 188.638L214.92 188.206ZM210.452 189.045C210.963 188.952 211.469 188.858 211.97 188.765L212.05 189.198C211.777 189.248 211.502 189.299 211.226 189.35C210.995 189.393 210.763 189.435 210.531 189.477L210.452 189.045ZM203.229 190.313C204.719 190.06 206.178 189.808 207.604 189.556L207.681 189.989C206.253 190.241 204.793 190.494 203.303 190.747L203.229 190.313ZM223.84 191.279C222.393 191.634 220.892 191.984 219.339 192.33L219.243 191.9C220.794 191.555 222.292 191.206 223.735 190.852L223.84 191.279ZM189.987 192.462C192.513 192.067 194.979 191.675 197.38 191.284L197.451 191.719C195.049 192.109 192.581 192.502 190.055 192.897L189.987 192.462ZM216.435 192.958C215.955 193.059 215.471 193.16 214.982 193.26L214.893 192.83C215.381 192.729 215.865 192.629 216.345 192.528L216.435 192.958ZM179.765 194.032C181.264 193.805 182.747 193.579 184.214 193.355L184.28 193.79C182.813 194.014 181.33 194.24 179.831 194.466L179.765 194.032ZM211.998 193.859C210.538 194.145 209.044 194.429 207.517 194.71L207.438 194.277C208.962 193.996 210.455 193.713 211.913 193.427L211.998 193.859ZM175.403 194.688L176.85 194.471L176.916 194.906L175.469 195.123L175.403 194.688ZM168.044 195.787C169.535 195.565 171.015 195.345 172.484 195.125L172.549 195.56C171.08 195.78 169.6 196 168.109 196.222L168.044 195.787ZM201.577 195.765C199.163 196.18 196.683 196.59 194.144 196.996L194.074 196.562C196.612 196.156 199.091 195.746 201.502 195.332L201.577 195.765ZM154.842 197.754C157.321 197.383 159.78 197.017 162.214 196.655L162.279 197.09C159.844 197.452 157.385 197.818 154.907 198.189L154.842 197.754ZM188.09 197.944C186.636 198.167 185.165 198.388 183.679 198.61L183.615 198.175C185.1 197.953 186.57 197.732 188.024 197.509L188.09 197.944ZM180.688 199.052C180.186 199.125 179.682 199.199 179.177 199.272L179.114 198.837C179.619 198.764 180.122 198.69 180.624 198.617L180.688 199.052ZM144.61 199.297C146.084 199.072 147.554 198.85 149.017 198.629L149.083 199.064C147.619 199.285 146.15 199.507 144.676 199.732L144.61 199.297ZM176.146 199.71C174.679 199.921 173.2 200.131 171.71 200.341L171.649 199.906C173.138 199.696 174.617 199.485 176.083 199.275L176.146 199.71ZM140.209 199.97C140.695 199.895 141.18 199.821 141.665 199.746L141.732 200.181C141.247 200.256 140.762 200.33 140.276 200.405L140.209 199.97ZM132.894 201.107C134.362 200.876 135.827 200.648 137.289 200.421L137.356 200.856C135.894 201.082 134.429 201.311 132.962 201.541L132.894 201.107ZM165.695 201.183C163.233 201.524 160.745 201.866 158.237 202.209L158.178 201.773C160.685 201.43 163.173 201.088 165.635 200.747L165.695 201.183ZM119.721 203.228C122.158 202.825 124.597 202.428 127.032 202.037L127.102 202.472C124.667 202.862 122.229 203.259 119.793 203.662L119.721 203.228ZM152.218 203.03L147.748 203.638L147.689 203.202L152.158 202.594L152.218 203.03ZM144.759 204.045L143.26 204.249L143.2 203.813L144.699 203.609L144.759 204.045ZM109.484 204.961C110.944 204.707 112.406 204.456 113.869 204.208L113.942 204.641C112.48 204.89 111.019 205.141 109.56 205.394L109.484 204.961ZM140.255 204.659C138.762 204.863 137.266 205.068 135.767 205.274L135.707 204.839C137.206 204.633 138.702 204.428 140.195 204.223L140.255 204.659ZM106.406 205.5L106.569 205.471L106.645 205.904C106.16 205.99 105.676 206.076 105.191 206.162L105.114 205.729C105.544 205.652 105.975 205.576 106.406 205.5ZM129.785 206.102C127.292 206.449 124.795 206.799 122.3 207.154L122.238 206.718C124.734 206.364 127.231 206.013 129.725 205.666L129.785 206.102ZM97.8059 207.057C99.2635 206.786 100.726 206.518 102.192 206.253L102.27 206.686C100.805 206.951 99.3431 207.218 97.8862 207.489L97.8059 207.057ZM116.322 208.012C114.826 208.229 113.332 208.448 111.841 208.669L111.777 208.234C113.268 208.013 114.763 207.794 116.258 207.577L116.322 208.012ZM84.7029 209.601C87.1161 209.11 89.5508 208.628 92.0026 208.155L92.0859 208.587C89.6355 209.06 87.2023 209.541 84.7905 210.032L84.7029 209.601ZM108.844 209.115C108.345 209.19 107.846 209.265 107.348 209.34L107.282 208.905C107.781 208.83 108.279 208.755 108.778 208.68L108.844 209.115ZM104.364 209.794C102.874 210.022 101.389 210.253 99.9082 210.485L99.8399 210.051C101.321 209.818 102.807 209.588 104.297 209.359L104.364 209.794ZM74.5482 211.751C76.002 211.43 77.4664 211.113 78.9404 210.799L79.032 211.229C77.559 211.543 76.0957 211.86 74.643 212.181L74.5482 211.751ZM93.9112 211.444C91.419 211.85 88.9448 212.263 86.4932 212.684L86.4188 212.25C88.8718 211.829 91.3472 211.416 93.8405 211.01L93.9112 211.444ZM70.2167 212.727C70.6942 212.617 71.173 212.508 71.6531 212.399L71.7503 212.828C71.2707 212.937 70.7923 213.046 70.3152 213.155L70.2167 212.727ZM80.5066 213.734C79.0226 214 77.5485 214.27 76.0853 214.543L76.0047 214.111C77.4688 213.837 78.9439 213.568 80.4289 213.301L80.5066 213.734ZM62.9929 214.445C64.437 214.089 65.8957 213.737 67.3676 213.39L67.4686 213.818C65.998 214.165 64.5408 214.516 63.0982 214.872L62.9929 214.445ZM73.1054 215.106C72.6038 215.202 72.1035 215.299 71.6047 215.396L71.5208 214.964C72.02 214.867 72.5206 214.77 73.0227 214.674L73.1054 215.106ZM68.6296 215.982C67.151 216.277 65.6863 216.577 64.2365 216.88L64.1464 216.45C65.5975 216.146 67.0636 215.846 68.5433 215.551L68.6296 215.982ZM50.0814 217.868C52.4259 217.197 54.8255 216.541 57.2738 215.899L57.3854 216.324C54.94 216.966 52.5436 217.621 50.2024 218.291L50.0814 217.868ZM58.2829 218.168C55.7957 218.725 53.3606 219.295 50.9839 219.878L50.879 219.451C53.2588 218.867 55.697 218.296 58.1868 217.739L58.2829 218.168ZM40.1504 220.915C41.5609 220.45 42.9984 219.991 44.4613 219.539L44.5912 219.959C43.1308 220.411 41.6959 220.868 40.2882 221.333L40.1504 220.915ZM45.0863 221.39C43.6221 221.782 42.1845 222.18 40.7752 222.584L40.6539 222.161C42.0659 221.756 43.506 221.357 44.9726 220.965L45.0863 221.39ZM36.0018 222.331C36.4534 222.172 36.9081 222.013 37.366 221.855L37.5096 222.27C37.0527 222.428 36.5989 222.587 36.1484 222.746L36.0018 222.331ZM37.8162 223.456C37.3304 223.603 36.8483 223.75 36.3701 223.899L36.2396 223.479C36.7189 223.33 37.2021 223.182 37.6889 223.035L37.8162 223.456ZM29.0069 224.973C30.36 224.425 31.7505 223.886 33.1763 223.356L33.3297 223.768C31.9075 224.297 30.5209 224.835 29.1719 225.38L29.0069 224.973ZM33.5466 224.801C32.0634 225.288 30.6209 225.784 29.2216 226.29L29.0722 225.876C30.4758 225.369 31.9224 224.871 33.4093 224.383L33.5466 224.801ZM16.9438 230.664C18.9911 229.517 21.1975 228.405 23.5482 227.324L23.732 227.723C22.0704 228.487 20.4821 229.267 18.9725 230.063C20.4146 229.368 21.9333 228.689 23.5234 228.026L23.6927 228.432C21.2336 229.457 18.949 230.519 16.8568 231.619L16.6521 231.23C16.8081 231.148 16.9652 231.066 17.1233 230.984L16.9438 230.664ZM8.3116 236.509C9.42477 235.569 10.6394 234.649 11.9492 233.75L12.1982 234.112C11.9753 234.265 11.7552 234.419 11.538 234.573L11.6382 234.721C10.3124 235.621 9.11056 236.545 8.04038 237.494L7.74858 237.165C7.95922 236.979 8.17478 236.793 8.3952 236.608L8.3116 236.509ZM5.09599 239.598C5.4362 239.221 5.79222 238.847 6.16369 238.476L6.47444 238.787C6.26295 238.998 6.05666 239.21 5.85561 239.423L5.97969 239.535C5.62567 239.93 5.29388 240.33 4.98478 240.733L4.63559 240.466C4.82672 240.216 5.02613 239.968 5.23371 239.722L5.09599 239.598ZM1.08639 245.843C1.62058 244.492 2.34535 243.179 3.2473 241.901L3.60663 242.154C3.40613 242.438 3.21473 242.724 3.03255 243.011L3.40632 243.204C2.70393 244.567 2.24969 245.975 2.05975 247.432L1.62361 247.375C1.8118 245.932 2.24989 244.538 2.9197 243.191C2.34892 244.113 1.87284 245.05 1.49541 246.005L1.08639 245.843ZM1.73131 258.9C0.596062 256.404 0.0331991 254 0 251.684L0.439783 251.678C0.472 253.925 1.01809 256.269 2.13168 258.718L1.73131 258.9ZM2.666 253.284C3.33103 255.338 4.47549 257.49 6.14424 259.745L5.79071 260.006C4.10015 257.722 2.93027 255.528 2.24755 253.419L2.666 253.284ZM7.52315 267.381C6.51883 266.264 5.62035 265.164 4.82457 264.081L5.17901 263.821C5.96542 264.891 6.8546 265.98 7.85018 267.087L7.52315 267.381ZM10.1457 264.345C11.1146 265.319 12.1747 266.31 13.3289 267.319L13.0394 267.65C11.8783 266.635 10.8106 265.637 9.83385 264.655L10.1457 264.345ZM10.2567 270.209C10.0595 270.018 9.8653 269.827 9.67408 269.637L9.9841 269.325C10.1739 269.514 10.3668 269.703 10.5627 269.893C10.7307 270.055 10.8996 270.217 11.0695 270.377L10.7674 270.697C10.5962 270.535 10.426 270.373 10.2567 270.209ZM15.7633 269.361C15.9768 269.533 16.1929 269.705 16.4116 269.878C16.5863 270.016 16.7617 270.154 16.9379 270.29L16.6686 270.638C16.4912 270.5 16.3146 270.362 16.1388 270.223C15.9189 270.049 15.7018 269.876 15.4873 269.703L15.7633 269.361ZM19.0862 271.885C20.1746 272.659 21.288 273.402 22.4249 274.115L22.1913 274.488C21.0473 273.77 19.9267 273.022 18.8313 272.243L19.0862 271.885ZM16.1667 275.224C15.0355 274.382 13.9342 273.503 12.8647 272.585L13.1511 272.252C14.2127 273.163 15.3061 274.036 16.4293 274.872L16.1667 275.224ZM27.064 276.793C29.0215 277.832 31.0362 278.794 33.1012 279.682L32.9273 280.086C30.8519 279.193 28.8264 278.226 26.8578 277.181L27.064 276.793ZM172.352 277.17L172.481 277.59L172.479 277.591L172.476 277.592L172.474 277.593L172.472 277.594L172.443 277.603L172.329 277.639C172.228 277.671 172.078 277.719 171.88 277.78L171.749 277.36C171.76 277.357 171.77 277.354 171.781 277.35L171.776 277.335C171.966 277.282 172.11 277.24 172.207 277.212L172.316 277.181L172.343 277.173L172.344 277.173L172.346 277.172L172.35 277.171L172.352 277.17ZM27.0019 281.782C24.8776 280.744 22.8182 279.614 20.8324 278.388L21.0634 278.014C23.0363 279.232 25.0831 280.354 27.1951 281.387L27.0019 281.782ZM165.23 279.068C166.782 278.679 168.104 278.335 169.173 278.049L169.286 278.474C169.237 278.488 169.187 278.501 169.137 278.514L169.162 278.601C168.056 278.927 166.69 279.321 165.089 279.767L164.972 279.343C165.075 279.314 165.177 279.286 165.278 279.257L165.23 279.068ZM153.496 281.782C155.873 281.275 158.067 280.782 160.055 280.319L160.154 280.747C159.97 280.79 159.783 280.833 159.595 280.877L159.685 281.221C157.61 281.761 155.318 282.337 152.837 282.933L152.735 282.505C154.078 282.183 155.366 281.866 156.594 281.557C155.628 281.772 154.625 281.991 153.588 282.212L153.496 281.782ZM38.0868 281.655C39.3406 282.11 40.6097 282.541 41.8927 282.949L41.7594 283.368C40.471 282.958 39.1963 282.525 37.9368 282.069L38.0868 281.655ZM144.278 283.626C145.635 283.372 146.956 283.118 148.238 282.864L148.323 283.295C147.04 283.549 145.718 283.805 144.359 284.059L144.278 283.626ZM36.1124 285.569C34.7729 285.1 33.4515 284.603 32.1501 284.076L32.3151 283.668C33.6098 284.192 34.9246 284.687 36.2577 285.154L36.1124 285.569ZM44.4561 283.729C44.8837 283.853 45.3127 283.975 45.7431 284.094L45.6254 284.518C45.1934 284.398 44.7627 284.276 44.3333 284.151L44.4561 283.729ZM147.37 284.202C146.032 284.503 144.652 284.805 143.234 285.107L143.142 284.677C144.558 284.375 145.937 284.073 147.274 283.773L147.37 284.202ZM140.299 284.348C140.741 284.27 141.18 284.192 141.615 284.114L141.693 284.547C141.257 284.625 140.818 284.703 140.376 284.781L140.299 284.348ZM48.3412 284.782C49.6338 285.109 50.9375 285.415 52.251 285.701L52.1573 286.131C50.8393 285.844 49.5309 285.537 48.2335 285.209L48.3412 284.782ZM133.69 285.446C135.038 285.235 136.364 285.019 137.665 284.801L137.738 285.234C136.435 285.453 135.108 285.669 133.758 285.881L133.69 285.446ZM140.489 285.68C140.025 285.776 139.556 285.871 139.084 285.966L138.998 285.534C139.469 285.44 139.937 285.345 140.401 285.249L140.489 285.68ZM40.121 286.872C39.6706 286.736 39.222 286.598 38.7752 286.456L38.908 286.037C39.3528 286.178 39.7995 286.316 40.2479 286.451L40.121 286.872ZM136.355 286.504C134.994 286.767 133.607 287.028 132.195 287.284L132.117 286.851C133.526 286.595 134.912 286.335 136.272 286.072L136.355 286.504ZM121.719 287.11C123.982 286.836 126.203 286.544 128.375 286.238L128.436 286.673C126.261 286.98 124.037 287.273 121.772 287.546L121.719 287.11ZM57.5152 286.736C59.7057 287.122 61.9175 287.458 64.1451 287.747L64.0885 288.183C61.8547 287.893 59.6362 287.556 57.4389 287.169L57.5152 286.736ZM46.928 288.675C45.5513 288.358 44.1874 288.016 42.8378 287.65L42.9531 287.225C44.2971 287.59 45.6555 287.93 47.0269 288.247L46.928 288.675ZM112.359 288.101C113.71 287.979 115.051 287.848 116.38 287.71L116.426 288.147C115.095 288.286 113.752 288.417 112.399 288.539L112.359 288.101ZM126.648 288.245C124.381 288.62 122.063 288.98 119.705 289.319L119.642 288.884C121.998 288.545 124.312 288.185 126.576 287.811L126.648 288.245ZM108.356 288.437C108.803 288.402 109.25 288.367 109.696 288.331L109.732 288.769C109.285 288.805 108.838 288.841 108.389 288.875L108.356 288.437ZM69.4789 288.35C70.8125 288.479 72.15 288.592 73.4901 288.691L73.4577 289.13C72.1143 289.031 70.7736 288.917 69.4366 288.787L69.4789 288.35ZM101.656 288.873C103.001 288.802 104.34 288.721 105.672 288.631L105.702 289.07C104.368 289.16 103.026 289.241 101.679 289.312L101.656 288.873ZM76.1673 288.87C76.6136 288.896 77.0601 288.921 77.5067 288.945L77.4836 289.384C77.036 289.36 76.5885 289.335 76.1412 289.309L76.1673 288.87ZM80.188 289.067C81.5294 289.12 82.8714 289.159 84.2129 289.185L84.2042 289.625C82.86 289.598 81.5151 289.559 80.1709 289.507L80.188 289.067ZM89.582 289.225C91.8268 289.215 94.0657 289.173 96.2929 289.101L96.307 289.541C94.0759 289.612 91.833 289.655 89.5839 289.665L89.582 289.225ZM59.3981 290.889C57.0557 290.586 54.7347 290.228 52.4421 289.811L52.5209 289.378C54.8057 289.794 57.1191 290.151 59.4544 290.453L59.3981 290.889ZM114.123 290.073C112.738 290.248 111.342 290.415 109.935 290.573L109.886 290.136C111.29 289.978 112.685 289.812 114.068 289.637L114.123 290.073ZM107.139 290.873C106.674 290.921 106.209 290.967 105.743 291.013L105.7 290.575C106.165 290.53 106.63 290.483 107.094 290.436L107.139 290.873ZM102.934 291.273C101.54 291.395 100.139 291.508 98.7328 291.609L98.7012 291.17C100.105 291.069 101.504 290.957 102.896 290.835L102.934 291.273ZM69.2075 291.838C67.7984 291.744 66.3935 291.634 64.9942 291.505L65.0344 291.067C66.4299 291.195 67.8311 291.306 69.2366 291.399L69.2075 291.838ZM93.114 291.952C90.7783 292.068 88.4325 292.151 86.083 292.198L86.0743 291.758C88.4192 291.712 90.7606 291.628 93.0921 291.512L93.114 291.952ZM73.4205 292.066C72.9513 292.046 72.4824 292.025 72.0139 292.001L72.036 291.562C72.5034 291.585 72.9711 291.607 73.4392 291.627L73.4205 292.066ZM80.4543 292.236C79.0469 292.227 77.6399 292.204 76.2348 292.165L76.2469 291.725C77.6488 291.764 79.0527 291.787 80.4571 291.796L80.4543 292.236Z" fill="url(#paint6_linear_428_2881)"/>
<path d="M171.608 275.478L142.358 311.834L180.297 293.871L181.712 293.151L316.173 224.8L149.534 306.04L172.894 277.687L316.173 224.8L177.503 273.632L175.849 274.214L171.608 275.478Z" fill="url(#paint7_linear_428_2881)"/>
<path d="M316.173 224.8L149.086 251.83L173.518 268.17L174.175 268.176L316.173 224.8L172.78 263.769L152.383 253.326L316.173 224.8Z" fill="url(#paint8_linear_428_2881)"/>
<path d="M173.518 268.17L175.849 274.214L177.503 273.632L174.175 268.176L173.518 268.17Z" fill="url(#paint9_linear_428_2881)"/>
<path d="M180.297 293.871L184.93 298.309L316.173 224.8L184.918 296.843L181.712 293.151L180.297 293.871Z" fill="url(#paint10_linear_428_2881)"/>
<path d="M152.383 253.326L172.78 263.769L316.173 224.8L152.383 253.326Z" fill="url(#paint11_linear_428_2881)"/>
<path d="M316.173 224.8L172.894 277.687L149.534 306.04L316.173 224.8Z" fill="url(#paint12_linear_428_2881)"/>
<path d="M316.173 224.8L181.712 293.151L184.918 296.843L316.173 224.8Z" fill="url(#paint13_linear_428_2881)"/>
<path fill-rule="evenodd" clip-rule="evenodd" d="M314.836 225.202L314.809 225.206L314.751 224.845L316.141 224.62L316.143 224.619L316.262 224.96L316.261 224.961L316.256 224.964L315.168 225.573L315.144 225.529L315.135 225.533L315.126 225.515L314.864 225.642L314.704 225.313L314.928 225.203L314.839 225.219L314.836 225.202ZM312.025 225.657L309.24 226.107L309.181 225.746L311.966 225.295L312.025 225.657ZM310.253 226.599L310.246 226.601L310.15 226.247L312.54 225.598L312.578 225.739L312.615 225.859L312.645 225.848L312.767 226.194L312.634 226.241L312.654 226.294L310.266 227.176L310.139 226.832L310.306 226.77L310.253 226.599ZM302.247 227.04L307.952 226.046L308.014 226.407L298.46 228.071L298.423 227.857L292.531 228.81L292.473 228.449L302.219 226.872L302.247 227.04ZM310.67 227.803L310.653 227.812L310.487 227.485L312.728 226.346L312.782 226.452L312.803 226.441L312.979 226.762L312.965 226.77L312.981 226.798L310.794 228.023L310.67 227.803ZM304.271 228.224L295.907 230.498L295.81 230.144L304.175 227.871L304.271 228.224ZM304.393 228.59L296.11 231.12L296.003 230.77L304.286 228.24L304.393 228.59ZM275.194 231.751L284.748 230.087L284.811 230.448L275.257 232.112L275.194 231.751ZM278.607 231.063L268.861 232.64L268.802 232.278L278.549 230.701L278.607 231.063ZM304.23 229.2L304.678 229.042L304.556 228.697L296.467 231.545L296.571 231.84L295.811 232.121L295.938 232.465L304.296 229.379L304.23 229.2ZM298.04 233.437L307.76 228.698L307.921 229.027L304.956 230.473L305.051 230.66L297.207 234.647L297.041 234.32L298.186 233.738L298.04 233.437ZM261.899 233.766L259.114 234.216L259.055 233.855L261.84 233.404L261.899 233.766ZM265.639 233.415L268.369 232.94L268.432 233.301L265.702 233.776L265.639 233.415ZM256.329 234.667L253.545 235.117L253.486 234.756L256.271 234.305L256.329 234.667ZM260.18 234.366L262.909 233.89L262.972 234.252L260.242 234.727L260.18 234.366ZM305.273 230.992L305.323 230.965L305.147 230.643L297.49 234.846L297.578 235.005L297.49 235.054L297.669 235.374L305.325 231.086L305.273 230.992ZM246.583 236.244L236.836 237.82L236.777 237.459L246.524 235.882L246.583 236.244ZM243.801 237.218L253.355 235.554L253.418 235.916L243.863 237.579L243.801 237.218ZM283.957 233.745L275.593 236.018L275.496 235.664L283.861 233.391L283.957 233.745ZM284.277 234.735L275.993 237.265L275.886 236.915L284.17 234.385L284.277 234.735ZM222.912 240.073L213.165 241.65L213.107 241.288L222.854 239.711L222.912 240.073ZM220.597 241.26L230.151 239.596L230.214 239.957L220.66 241.621L220.597 241.26ZM285.033 235.96L276.944 238.809L276.822 238.463L284.911 235.615L285.033 235.96ZM269.618 237.642L267.228 238.291L267.132 237.938L269.522 237.288L269.618 237.642ZM206.203 242.776L203.419 243.226L203.36 242.865L206.145 242.414L206.203 242.776ZM283.998 236.872L275.641 239.957L275.514 239.613L283.871 236.528L283.998 236.872ZM200.634 243.677L197.849 244.127L197.791 243.766L200.575 243.315L200.634 243.677ZM211.043 242.923L213.772 242.448L213.835 242.809L211.105 243.285L211.043 242.923ZM264.838 238.941L262.448 239.59L262.352 239.237L264.742 238.587L264.838 238.941ZM205.583 243.874L208.313 243.399L208.376 243.76L205.646 244.235L205.583 243.874ZM190.887 245.254L181.14 246.83L181.082 246.469L190.829 244.892L190.887 245.254ZM270.077 239.073L267.71 239.796L267.603 239.445L269.97 238.722L270.077 239.073ZM189.204 246.727L198.758 245.063L198.821 245.424L189.267 247.088L189.204 246.727ZM256.474 241.214L248.109 243.487L248.013 243.133L256.377 240.86L256.474 241.214ZM265.344 240.519L262.977 241.242L262.87 240.891L265.236 240.168L265.344 240.519ZM167.217 249.083L157.47 250.66L157.411 250.298L167.158 248.721L167.217 249.083ZM271.166 240.843L268.855 241.657L268.733 241.312L271.044 240.498L271.166 240.843ZM286.002 240.343L278.159 244.33L277.992 244.003L285.836 240.016L286.002 240.343ZM274.433 244.946L284.153 240.207L284.314 240.536L274.593 245.275L274.433 244.946ZM166 250.768L175.555 249.104L175.618 249.465L166.063 251.129L166 250.768ZM257.06 243.049L248.777 245.579L248.67 245.229L256.953 242.698L257.06 243.049ZM269.671 242.161L267.283 243.042L267.156 242.698L269.544 241.817L269.671 242.161ZM266.544 242.471L264.232 243.285L264.111 242.939L266.422 242.125L266.544 242.471ZM149.575 251.937L150.508 251.786L150.449 251.424L148.597 251.724L149.595 252.391L149.799 252.086L149.575 251.937ZM286.591 241.246L286.728 241.171L286.552 240.849L278.896 245.052L279.071 245.371L278.898 245.468L279.077 245.788L286.733 241.5L286.591 241.246ZM264.895 243.923L262.507 244.805L262.38 244.461L264.768 243.58L264.895 243.923ZM156.446 252.432L159.176 251.956L159.239 252.318L156.509 252.793L156.446 252.432ZM151.021 252.903L152.242 253.72L152.038 254.025L150.817 253.208L151.021 252.903ZM236.16 246.734L227.795 249.008L227.699 248.654L236.063 246.381L236.16 246.734ZM153.716 252.907L153.779 253.268L152.954 253.412L152.976 253.424L152.809 253.75L151.811 253.239L153.716 252.907ZM258.454 245.32L250.365 248.168L250.244 247.822L258.333 244.974L258.454 245.32ZM256.537 247.008L248.179 250.094L248.052 249.75L256.41 246.665L256.537 247.008ZM158.928 256.883L155.359 255.055L155.526 254.729L159.095 256.556L158.928 256.883ZM236.944 249.194L228.661 251.724L228.554 251.374L236.837 248.843L236.944 249.194ZM221.82 250.631L219.43 251.281L219.334 250.927L221.724 250.278L221.82 250.631ZM155.296 255.763L159.572 258.622L159.368 258.927L155.092 256.068L155.296 255.763ZM272.556 247.178L270.315 248.317L270.149 247.99L272.39 246.851L272.556 247.178ZM217.04 251.93L214.651 252.58L214.554 252.226L216.944 251.576L217.04 251.93ZM264.712 249.685L267.489 248.331L267.65 248.66L264.873 250.014L264.712 249.685ZM273.603 248.375L271.415 249.576L271.239 249.254L273.427 248.054L273.603 248.375ZM273.608 248.85L271.421 250.075L271.242 249.756L273.429 248.531L273.608 248.85ZM268.074 249.456L265.833 250.595L265.667 250.269L267.908 249.129L268.074 249.456ZM208.676 254.203L200.311 256.476L200.215 256.123L208.58 253.85L208.676 254.203ZM238.81 252.237L230.721 255.086L230.599 254.74L238.688 251.892L238.81 252.237ZM222.744 253.532L220.378 254.254L220.271 253.904L222.637 253.181L222.744 253.532ZM269.228 250.776L267.04 251.977L266.864 251.656L269.052 250.455L269.228 250.776ZM259.157 252.393L261.935 251.039L262.095 251.368L259.318 252.722L259.157 252.393ZM218.011 254.977L215.644 255.7L215.537 255.35L217.904 254.627L218.011 254.977ZM167.597 261.321L164.027 259.493L164.194 259.167L167.764 260.995L167.597 261.321ZM269.234 251.301L267.046 252.526L266.867 252.206L269.054 250.981L269.234 251.301ZM236.239 254.501L227.881 257.586L227.754 257.242L236.112 254.157L236.239 254.501ZM260.23 253.443L252.387 257.43L252.221 257.104L260.064 253.117L260.23 253.443ZM209.728 257.508L201.445 260.038L201.337 259.687L209.621 257.157L209.728 257.508ZM188.362 259.724L179.997 261.997L179.901 261.643L188.266 259.37L188.362 259.724ZM224.943 257.121L222.632 257.934L222.51 257.589L224.821 256.775L224.943 257.121ZM261.571 254.979L253.915 259.181L253.738 258.86L261.395 254.658L261.571 254.979ZM242.493 260.517L252.214 255.778L252.375 256.107L242.654 260.846L242.493 260.517ZM171.166 263.148L170.146 262.626L170.313 262.3L171.333 262.822L171.166 263.148ZM165.68 262.708L169.955 265.567L169.751 265.872L165.476 263.012L165.68 262.708ZM220.32 258.748L218.009 259.562L217.888 259.216L220.199 258.403L220.32 258.748ZM261.578 255.589L253.922 259.877L253.743 259.557L261.399 255.269L261.578 255.589ZM172.186 263.671L172.353 263.344L172.8 263.573L173.926 263.267L174.023 263.621L172.759 263.964L172.186 263.671ZM221.911 259.79L219.523 260.671L219.396 260.327L221.784 259.446L221.911 259.79ZM212.231 261.597L204.142 264.445L204.021 264.1L212.11 261.251L212.231 261.597ZM189.611 263.653L181.328 266.183L181.221 265.832L189.504 263.302L189.611 263.653ZM217.135 261.552L214.747 262.434L214.62 262.09L217.008 261.209L217.135 261.552ZM208.777 264.638L200.42 267.723L200.293 267.379L208.651 264.294L208.777 264.638ZM173.618 268.017L173.618 267.988L173.733 267.989L173.731 268.214L173.747 268.256L173.731 268.262L173.73 268.356L173.615 268.355L173.615 268.306L173.533 268.338L173.533 268.354L173.516 268.354L173.516 268.345L173.405 268.387L173.368 268.29L172.805 267.914L173.009 267.61L173.618 268.017ZM173.535 268.164L173.617 268.132L173.618 268.021L173.535 268.146L173.535 268.164ZM175.412 267.99L174.228 268.352L174.223 268.334L174.102 268.408L174.018 268.272L174.092 268.227L174.094 267.992L174.127 267.993L174.127 267.999L175.305 267.64L175.412 267.99ZM174.127 268.02L174.125 268.207L174.158 268.187L174.159 268.124L174.127 268.02ZM174.009 268.358L173.894 268.357L173.897 267.991L174.012 267.992L174.009 268.358ZM241.182 263.126L233.338 267.113L233.172 266.787L241.016 262.8L241.182 263.126ZM175.1 270.045L174.518 269.09L174.83 268.899L175.413 269.854L175.1 270.045ZM174.105 270.201L173.697 269.143L174.039 269.011L174.447 270.069L174.105 270.201ZM192.587 268.515L184.497 271.363L184.376 271.017L192.465 268.169L192.587 268.515ZM242.977 265.185L235.32 269.388L235.144 269.066L242.801 264.864L242.977 265.185ZM242.985 266.002L235.329 270.29L235.15 269.97L242.806 265.682L242.985 266.002ZM176.515 272.363L175.932 271.409L176.245 271.218L176.827 272.173L176.515 272.363ZM218.886 272.026L228.607 267.287L228.767 267.616L219.047 272.355L218.886 272.026ZM175.096 272.769L174.688 271.712L175.03 271.58L175.438 272.637L175.096 272.769ZM188.48 272.13L180.122 275.215L179.995 274.871L188.353 271.786L188.48 272.13ZM177.097 273.318L176.931 273.045L177.244 272.854L177.41 273.127L177.097 273.318ZM178.72 273.398L177.523 273.819L177.465 273.655L177.388 273.702L177.44 273.848L177.357 273.877L177.236 273.532L177.318 273.503L177.334 273.548L177.411 273.501L177.401 273.474L177.531 273.428L177.576 273.4L177.582 273.41L178.598 273.052L178.72 273.398ZM175.504 273.827L175.387 273.525L175.729 273.393L175.846 273.695L175.504 273.827ZM177.151 273.95L176.861 274.052L176.739 273.706L177.029 273.605L177.151 273.95ZM227.736 269.961L225.495 271.101L225.329 270.774L227.57 269.635L227.736 269.961ZM176.448 274.198L176.158 274.3L176.037 273.954L176.326 273.852L176.448 274.198ZM175.678 274.28L175.62 274.129L175.7 274.098L175.691 274.07L175.793 274.04L175.83 274.027L175.837 274.046L175.962 273.997L176.02 274.148L175.89 274.198L175.952 274.372L175.902 274.39L175.796 274.421L175.746 274.254L175.678 274.28ZM174.419 274.449L175.161 274.228L175.266 274.579L174.523 274.801L174.419 274.449ZM172.616 274.986L173.358 274.765L173.463 275.116L172.721 275.338L172.616 274.986ZM171.874 275.208L172.086 275.144L172.191 275.496L171.979 275.559L171.874 275.208ZM171.662 275.271L171.767 275.622L171.715 275.637L171.02 276.502L170.734 276.272L171.501 275.319L171.662 275.271ZM223.254 272.24L221.013 273.379L220.847 273.052L223.088 271.913L223.254 272.24ZM229.852 272.389L227.664 273.59L227.488 273.269L229.675 272.068L229.852 272.389ZM173.004 277.842L174.152 277.419L174.025 277.075L172.785 277.533L172.169 278.28L172.452 278.513L173.004 277.842ZM229.861 273.353L227.673 274.578L227.494 274.258L229.682 273.033L229.861 273.353ZM209.166 276.765L211.943 275.411L212.104 275.74L209.326 277.094L209.166 276.765ZM225.476 274.791L223.289 275.991L223.112 275.67L225.3 274.469L225.476 274.791ZM215.41 276.227L207.567 280.214L207.401 279.887L215.244 275.9L215.41 276.227ZM171.284 279.93L170.116 281.348L169.833 281.115L171.001 279.697L171.284 279.93ZM225.486 275.803L223.299 277.028L223.12 276.709L225.307 275.484L225.486 275.803ZM161.959 287.179L167.078 280.817L167.364 281.046L162.245 287.409L161.959 287.179ZM203.611 279.473L206.388 278.119L206.549 278.448L203.772 279.802L203.611 279.473ZM217.82 278.993L210.163 283.196L209.987 282.874L217.644 278.672L217.82 278.993ZM217.83 280.091L210.174 284.379L209.995 284.06L217.651 279.772L217.83 280.091ZM167.196 284.892L163.108 289.854L162.825 289.621L166.913 284.659L167.196 284.892ZM186.947 287.597L196.668 282.858L196.828 283.187L187.108 287.926L186.947 287.597ZM196.362 285.91L188.518 289.897L188.352 289.57L196.196 285.583L196.362 285.91ZM199.225 289.199L191.569 293.402L191.393 293.081L199.049 288.878L199.225 289.199ZM199.238 290.505L191.582 294.793L191.403 294.473L199.059 290.185L199.238 290.505ZM182.916 292.745L181.76 293.333L181.738 293.29L181.677 293.344L181.689 293.369L181.618 293.405L181.452 293.078L181.523 293.042L181.62 293.232L181.681 293.178L181.594 293.006L182.75 292.418L182.916 292.745ZM181.441 293.495L181.194 293.62L181.028 293.294L181.275 293.168L181.441 293.495ZM180.84 293.8L180.592 293.926L180.426 293.599L180.674 293.474L180.84 293.8ZM180.415 294.016L180.38 294.034L180.374 294.022L180.37 294.026L180.375 294.036L180.348 294.049L180.286 294.114L180.261 294.09L179.427 294.486L179.27 294.154L180.218 293.705L180.249 293.689L180.326 293.84L180.424 293.738L180.539 293.849L180.403 293.992L180.415 294.016ZM182.616 294.471L182.055 293.825L182.331 293.585L182.893 294.231L182.616 294.471ZM163.34 299.106L173.061 294.367L173.221 294.696L163.501 299.435L163.34 299.106ZM149.528 302.63L154.647 296.268L154.932 296.498L149.813 302.86L149.528 302.63ZM181.676 295.445L180.865 294.669L181.119 294.404L181.929 295.181L181.676 295.445ZM177.53 295.384L175.633 296.282L175.476 295.951L177.373 295.052L177.53 295.384ZM157.267 296.942L153.179 301.904L152.896 301.671L156.984 296.709L157.267 296.942ZM183.978 296.04L183.417 295.394L183.694 295.154L184.255 295.8L183.978 296.04ZM183.645 297.331L182.834 296.555L183.088 296.29L183.899 297.067L183.645 297.331ZM186.1 296.404L184.877 297.075L184.7 296.871L184.858 296.734L184.83 296.683L185.924 296.082L186.1 296.404ZM184.539 296.687L184.379 296.502L184.656 296.262L184.816 296.446L184.539 296.687ZM170.891 298.527L164.251 301.671L164.094 301.34L170.734 298.196L170.891 298.527ZM184.456 298.108L184.224 297.886L184.478 297.621L184.709 297.843L184.456 298.108ZM186.113 297.856L184.901 298.535L184.688 298.33L184.848 298.162L184.841 298.149L184.885 298.124L184.941 298.065L184.959 298.082L185.934 297.536L186.113 297.856ZM153.619 303.845L156.397 302.491L156.557 302.82L153.78 304.174L153.619 303.845ZM150.211 305.506L150.259 305.448L149.976 305.215L149.392 305.924L149.614 306.205L151.003 305.528L150.842 305.199L150.211 305.506ZM154.767 306.162L148.127 309.305L147.971 308.974L154.61 305.831L154.767 306.162ZM144.409 308.993L145.872 307.175L146.157 307.405L144.695 309.223L144.409 308.993ZM142.215 311.719L142.947 310.811L143.232 311.04L143.002 311.327L143.228 311.22L143.385 311.551L142.437 312L142.215 311.719Z" fill="url(#paint14_linear_428_2881)"/>
<path d="M78.41 149.648C78.41 149.816 78.1365 149.953 77.7992 149.953C77.4618 149.953 77.1883 149.816 77.1883 149.648C77.1883 149.479 77.4618 149.342 77.7992 149.342C78.1365 149.342 78.41 149.479 78.41 149.648Z" fill="url(#paint15_linear_428_2881)"/>
<path d="M161.807 282.862C161.751 282.703 161.964 282.483 162.282 282.371C162.6 282.259 162.904 282.297 162.96 282.456C163.016 282.615 162.803 282.835 162.485 282.947C162.167 283.059 161.864 283.021 161.807 282.862Z" fill="url(#paint16_linear_428_2881)"/>
<path d="M137.155 286.872C137.099 286.713 137.312 286.493 137.63 286.381C137.948 286.269 138.252 286.307 138.308 286.466C138.364 286.625 138.151 286.845 137.833 286.957C137.515 287.069 137.211 287.031 137.155 286.872Z" fill="url(#paint17_linear_428_2881)"/>
<path d="M82.0753 153.618C82.0753 153.956 81.8018 154.229 81.4644 154.229C81.127 154.229 80.8535 153.956 80.8535 153.618C80.8535 153.281 81.127 153.008 81.4644 153.008C81.8018 153.008 82.0753 153.281 82.0753 153.618Z" fill="url(#paint18_linear_428_2881)"/>
<path d="M157.031 280.336C156.918 280.018 157.085 279.669 157.404 279.557C157.722 279.445 158.071 279.612 158.183 279.93C158.295 280.248 158.128 280.597 157.81 280.709C157.492 280.821 157.143 280.654 157.031 280.336Z" fill="url(#paint19_linear_428_2881)"/>
<path d="M151.918 285.938C151.806 285.62 151.973 285.271 152.291 285.159C152.609 285.047 152.958 285.214 153.07 285.532C153.182 285.85 153.015 286.199 152.697 286.311C152.379 286.424 152.03 286.257 151.918 285.938Z" fill="url(#paint20_linear_428_2881)"/>
<path d="M117.506 157.284C117.506 157.621 117.232 157.894 116.895 157.894C116.558 157.894 116.284 157.621 116.284 157.284C116.284 156.946 116.558 156.673 116.895 156.673C117.232 156.673 117.506 156.946 117.506 157.284Z" fill="url(#paint21_linear_428_2881)"/>
<path d="M68.6361 152.397C68.6361 152.734 68.3626 153.008 68.0252 153.008C67.6878 153.008 67.4143 152.734 67.4143 152.397C67.4143 152.059 67.6878 151.786 68.0252 151.786C68.3626 151.786 68.6361 152.059 68.6361 152.397Z" fill="url(#paint22_linear_428_2881)"/>
<path d="M170.111 277.02C169.999 276.701 170.166 276.353 170.484 276.24C170.803 276.128 171.151 276.295 171.264 276.613C171.376 276.932 171.209 277.28 170.891 277.393C170.572 277.505 170.224 277.338 170.111 277.02Z" fill="url(#paint23_linear_428_2881)"/>
<path d="M144.587 283.495C144.475 283.177 144.642 282.828 144.96 282.716C145.279 282.603 145.627 282.77 145.74 283.089C145.852 283.407 145.685 283.756 145.367 283.868C145.048 283.98 144.7 283.813 144.587 283.495Z" fill="url(#paint24_linear_428_2881)"/>
<path d="M74.0283 156.577C73.926 156.79 73.498 156.797 73.0722 156.592C72.6465 156.388 72.3842 156.049 72.4865 155.836C72.5887 155.624 73.0168 155.617 73.4425 155.821C73.8683 156.026 74.1305 156.364 74.0283 156.577Z" fill="url(#paint25_linear_428_2881)"/>
<path d="M163.636 274.87C163.662 274.635 164.063 274.486 164.533 274.538C165.002 274.589 165.362 274.821 165.336 275.056C165.311 275.291 164.909 275.439 164.44 275.388C163.97 275.337 163.61 275.105 163.636 274.87Z" fill="url(#paint26_linear_428_2881)"/>
<path d="M69.8578 151.175C69.8578 151.512 69.5843 151.786 69.247 151.786C68.9096 151.786 68.6361 151.512 68.6361 151.175C68.6361 150.838 68.9096 150.564 69.247 150.564C69.5843 150.564 69.8578 150.838 69.8578 151.175Z" fill="url(#paint27_linear_428_2881)"/>
<path d="M73.5231 152.397C73.5231 152.734 73.2496 153.008 72.9122 153.008C72.5748 153.008 72.3013 152.734 72.3013 152.397C72.3013 152.059 72.5748 151.786 72.9122 151.786C73.2496 151.786 73.5231 152.059 73.5231 152.397Z" fill="url(#paint28_linear_428_2881)"/>
<path d="M165.502 278.645C165.39 278.326 165.557 277.977 165.875 277.865C166.194 277.753 166.542 277.92 166.655 278.238C166.767 278.556 166.6 278.905 166.282 279.018C165.963 279.13 165.615 278.963 165.502 278.645Z" fill="url(#paint29_linear_428_2881)"/>
<path d="M70.7436 153.618C70.7436 153.467 70.6205 153.344 70.4687 153.344C70.3169 153.344 70.1938 153.467 70.1938 153.618C70.1938 153.77 70.3169 153.893 70.4687 153.893C70.6205 153.893 70.7436 153.77 70.7436 153.618Z" fill="url(#paint30_linear_428_2881)"/>
<path d="M167.717 276.568C167.768 276.711 167.925 276.786 168.068 276.736C168.211 276.685 168.286 276.529 168.236 276.385C168.185 276.242 168.028 276.167 167.885 276.217C167.742 276.268 167.667 276.425 167.717 276.568Z" fill="url(#paint31_linear_428_2881)"/>
<path d="M149.363 280.511C149.413 280.654 149.57 280.729 149.713 280.679C149.857 280.628 149.932 280.471 149.881 280.328C149.831 280.185 149.674 280.11 149.531 280.16C149.387 280.211 149.312 280.368 149.363 280.511Z" fill="url(#paint32_linear_428_2881)"/>
<path d="M138.367 284.176C138.417 284.319 138.574 284.395 138.718 284.344C138.861 284.294 138.936 284.137 138.886 283.993C138.835 283.85 138.678 283.775 138.535 283.826C138.392 283.876 138.317 284.033 138.367 284.176Z" fill="url(#paint33_linear_428_2881)"/>
<path d="M66.7424 154.504C66.7424 154.352 66.6193 154.229 66.4675 154.229C66.3157 154.229 66.1926 154.352 66.1926 154.504C66.1926 154.656 66.3157 154.779 66.4675 154.779C66.6193 154.779 66.7424 154.656 66.7424 154.504Z" fill="url(#paint34_linear_428_2881)"/>
<path d="M171.196 274.402C171.247 274.546 171.404 274.621 171.547 274.57C171.69 274.52 171.765 274.363 171.715 274.22C171.665 274.076 171.508 274.001 171.364 274.052C171.221 274.102 171.146 274.259 171.196 274.402Z" fill="url(#paint35_linear_428_2881)"/>
<path d="M82.6251 161.835C82.6251 161.683 82.502 161.56 82.3502 161.56C82.1984 161.56 82.0753 161.683 82.0753 161.835C82.0753 161.986 82.1984 162.11 82.3502 162.11C82.502 162.11 82.6251 161.986 82.6251 161.835Z" fill="url(#paint36_linear_428_2881)"/>
<path d="M96.3391 159.529C96.3391 159.301 96.1545 159.116 95.9268 159.116C95.6991 159.116 95.5145 159.301 95.5145 159.529C95.5145 159.756 95.6991 159.941 95.9268 159.941C96.1545 159.941 96.3391 159.756 96.3391 159.529Z" fill="url(#paint37_linear_428_2881)"/>
<path d="M121.996 158.307C121.996 158.079 121.811 157.894 121.583 157.894C121.356 157.894 121.171 158.079 121.171 158.307C121.171 158.535 121.356 158.719 121.583 158.719C121.811 158.719 121.996 158.535 121.996 158.307Z" fill="url(#paint38_linear_428_2881)"/>
<path d="M99.7295 160.613C99.7295 160.461 99.6064 160.338 99.4546 160.338C99.3028 160.338 99.1797 160.461 99.1797 160.613C99.1797 160.765 99.3028 160.888 99.4546 160.888C99.6064 160.888 99.7295 160.765 99.7295 160.613Z" fill="url(#paint39_linear_428_2881)"/>
<path d="M83.8468 153.282C83.8468 153.131 83.7237 153.008 83.5719 153.008C83.4201 153.008 83.297 153.131 83.297 153.282C83.297 153.434 83.4201 153.557 83.5719 153.557C83.7237 153.557 83.8468 153.434 83.8468 153.282Z" fill="url(#paint40_linear_428_2881)"/>
<path d="M155.471 281.242C155.522 281.385 155.679 281.46 155.822 281.41C155.965 281.359 156.04 281.202 155.99 281.059C155.939 280.916 155.782 280.841 155.639 280.891C155.496 280.942 155.421 281.099 155.471 281.242Z" fill="url(#paint41_linear_428_2881)"/>
<path d="M160.358 284.176C160.409 284.319 160.566 284.395 160.709 284.344C160.852 284.294 160.927 284.137 160.877 283.993C160.826 283.85 160.669 283.775 160.526 283.826C160.383 283.876 160.308 284.033 160.358 284.176Z" fill="url(#paint42_linear_428_2881)"/>
<path d="M122.943 155.726C122.943 155.574 122.82 155.451 122.668 155.451C122.516 155.451 122.393 155.574 122.393 155.726C122.393 155.878 122.516 156.001 122.668 156.001C122.82 156.001 122.943 155.878 122.943 155.726Z" fill="url(#paint43_linear_428_2881)"/>
<path d="M146.156 159.391C146.156 159.239 146.033 159.116 145.881 159.116C145.729 159.116 145.606 159.239 145.606 159.391C145.606 159.543 145.729 159.666 145.881 159.666C146.033 159.666 146.156 159.543 146.156 159.391Z" fill="url(#paint44_linear_428_2881)"/>
<path d="M130.273 160.613C130.273 160.461 130.15 160.338 129.998 160.338C129.846 160.338 129.723 160.461 129.723 160.613C129.723 160.765 129.846 160.888 129.998 160.888C130.15 160.888 130.273 160.765 130.273 160.613Z" fill="url(#paint45_linear_428_2881)"/>
<defs>
<linearGradient id="paint0_linear_428_2881" x1="277.5" y1="179.5" x2="117.5" y2="287" gradientUnits="userSpaceOnUse">
<stop stop-color="#BA3C3C"/>
<stop offset="1" stop-color="#FFBEBE"/>
</linearGradient>
<linearGradient id="paint1_linear_428_2881" x1="277.5" y1="179.5" x2="117.5" y2="287" gradientUnits="userSpaceOnUse">
<stop stop-color="#BA3C3C"/>
<stop offset="1" stop-color="#FFBEBE"/>
</linearGradient>
<linearGradient id="paint2_linear_428_2881" x1="277.5" y1="179.5" x2="117.5" y2="287" gradientUnits="userSpaceOnUse">
<stop stop-color="#BA3C3C"/>
<stop offset="1" stop-color="#FFBEBE"/>
</linearGradient>
<linearGradient id="paint3_linear_428_2881" x1="277.5" y1="179.5" x2="117.5" y2="287" gradientUnits="userSpaceOnUse">
<stop stop-color="#BA3C3C"/>
<stop offset="1" stop-color="#FFBEBE"/>
</linearGradient>
<linearGradient id="paint4_linear_428_2881" x1="277.5" y1="179.5" x2="117.5" y2="287" gradientUnits="userSpaceOnUse">
<stop stop-color="#BA3C3C"/>
<stop offset="1" stop-color="#FFBEBE"/>
</linearGradient>
<linearGradient id="paint5_linear_428_2881" x1="277.5" y1="179.5" x2="117.5" y2="287" gradientUnits="userSpaceOnUse">
<stop stop-color="#BA3C3C"/>
<stop offset="1" stop-color="#FFBEBE"/>
</linearGradient>
<linearGradient id="paint6_linear_428_2881" x1="277.5" y1="179.5" x2="117.5" y2="287" gradientUnits="userSpaceOnUse">
<stop stop-color="#BA3C3C"/>
<stop offset="1" stop-color="#FFBEBE"/>
</linearGradient>
<linearGradient id="paint7_linear_428_2881" x1="277.5" y1="179.5" x2="117.5" y2="287" gradientUnits="userSpaceOnUse">
<stop stop-color="#BA3C3C"/>
<stop offset="1" stop-color="#FFBEBE"/>
</linearGradient>
<linearGradient id="paint8_linear_428_2881" x1="277.5" y1="179.5" x2="117.5" y2="287" gradientUnits="userSpaceOnUse">
<stop stop-color="#BA3C3C"/>
<stop offset="1" stop-color="#FFBEBE"/>
</linearGradient>
<linearGradient id="paint9_linear_428_2881" x1="277.5" y1="179.5" x2="117.5" y2="287" gradientUnits="userSpaceOnUse">
<stop stop-color="#BA3C3C"/>
<stop offset="1" stop-color="#FFBEBE"/>
</linearGradient>
<linearGradient id="paint10_linear_428_2881" x1="277.5" y1="179.5" x2="117.5" y2="287" gradientUnits="userSpaceOnUse">
<stop stop-color="#BA3C3C"/>
<stop offset="1" stop-color="#FFBEBE"/>
</linearGradient>
<linearGradient id="paint11_linear_428_2881" x1="277.5" y1="179.5" x2="117.5" y2="287" gradientUnits="userSpaceOnUse">
<stop stop-color="#BA3C3C"/>
<stop offset="1" stop-color="#FFBEBE"/>
</linearGradient>
<linearGradient id="paint12_linear_428_2881" x1="277.5" y1="179.5" x2="117.5" y2="287" gradientUnits="userSpaceOnUse">
<stop stop-color="#BA3C3C"/>
<stop offset="1" stop-color="#FFBEBE"/>
</linearGradient>
<linearGradient id="paint13_linear_428_2881" x1="277.5" y1="179.5" x2="117.5" y2="287" gradientUnits="userSpaceOnUse">
<stop stop-color="#BA3C3C"/>
<stop offset="1" stop-color="#FFBEBE"/>
</linearGradient>
<linearGradient id="paint14_linear_428_2881" x1="277.5" y1="179.5" x2="117.5" y2="287" gradientUnits="userSpaceOnUse">
<stop stop-color="#BA3C3C"/>
<stop offset="1" stop-color="#FFBEBE"/>
</linearGradient>
<linearGradient id="paint15_linear_428_2881" x1="277.5" y1="179.5" x2="117.5" y2="287" gradientUnits="userSpaceOnUse">
<stop stop-color="#BA3C3C"/>
<stop offset="1" stop-color="#FFBEBE"/>
</linearGradient>
<linearGradient id="paint16_linear_428_2881" x1="277.5" y1="179.5" x2="117.5" y2="287" gradientUnits="userSpaceOnUse">
<stop stop-color="#BA3C3C"/>
<stop offset="1" stop-color="#FFBEBE"/>
</linearGradient>
<linearGradient id="paint17_linear_428_2881" x1="277.5" y1="179.5" x2="117.5" y2="287" gradientUnits="userSpaceOnUse">
<stop stop-color="#BA3C3C"/>
<stop offset="1" stop-color="#FFBEBE"/>
</linearGradient>
<linearGradient id="paint18_linear_428_2881" x1="277.5" y1="179.5" x2="117.5" y2="287" gradientUnits="userSpaceOnUse">
<stop stop-color="#BA3C3C"/>
<stop offset="1" stop-color="#FFBEBE"/>
</linearGradient>
<linearGradient id="paint19_linear_428_2881" x1="277.5" y1="179.5" x2="117.5" y2="287" gradientUnits="userSpaceOnUse">
<stop stop-color="#BA3C3C"/>
<stop offset="1" stop-color="#FFBEBE"/>
</linearGradient>
<linearGradient id="paint20_linear_428_2881" x1="277.5" y1="179.5" x2="117.5" y2="287" gradientUnits="userSpaceOnUse">
<stop stop-color="#BA3C3C"/>
<stop offset="1" stop-color="#FFBEBE"/>
</linearGradient>
<linearGradient id="paint21_linear_428_2881" x1="277.5" y1="179.5" x2="117.5" y2="287" gradientUnits="userSpaceOnUse">
<stop stop-color="#BA3C3C"/>
<stop offset="1" stop-color="#FFBEBE"/>
</linearGradient>
<linearGradient id="paint22_linear_428_2881" x1="277.5" y1="179.5" x2="117.5" y2="287" gradientUnits="userSpaceOnUse">
<stop stop-color="#BA3C3C"/>
<stop offset="1" stop-color="#FFBEBE"/>
</linearGradient>
<linearGradient id="paint23_linear_428_2881" x1="277.5" y1="179.5" x2="117.5" y2="287" gradientUnits="userSpaceOnUse">
<stop stop-color="#BA3C3C"/>
<stop offset="1" stop-color="#FFBEBE"/>
</linearGradient>
<linearGradient id="paint24_linear_428_2881" x1="277.5" y1="179.5" x2="117.5" y2="287" gradientUnits="userSpaceOnUse">
<stop stop-color="#BA3C3C"/>
<stop offset="1" stop-color="#FFBEBE"/>
</linearGradient>
<linearGradient id="paint25_linear_428_2881" x1="277.5" y1="179.5" x2="117.5" y2="287" gradientUnits="userSpaceOnUse">
<stop stop-color="#BA3C3C"/>
<stop offset="1" stop-color="#FFBEBE"/>
</linearGradient>
<linearGradient id="paint26_linear_428_2881" x1="277.5" y1="179.5" x2="117.5" y2="287" gradientUnits="userSpaceOnUse">
<stop stop-color="#BA3C3C"/>
<stop offset="1" stop-color="#FFBEBE"/>
</linearGradient>
<linearGradient id="paint27_linear_428_2881" x1="277.5" y1="179.5" x2="117.5" y2="287" gradientUnits="userSpaceOnUse">
<stop stop-color="#BA3C3C"/>
<stop offset="1" stop-color="#FFBEBE"/>
</linearGradient>
<linearGradient id="paint28_linear_428_2881" x1="277.5" y1="179.5" x2="117.5" y2="287" gradientUnits="userSpaceOnUse">
<stop stop-color="#BA3C3C"/>
<stop offset="1" stop-color="#FFBEBE"/>
</linearGradient>
<linearGradient id="paint29_linear_428_2881" x1="277.5" y1="179.5" x2="117.5" y2="287" gradientUnits="userSpaceOnUse">
<stop stop-color="#BA3C3C"/>
<stop offset="1" stop-color="#FFBEBE"/>
</linearGradient>
<linearGradient id="paint30_linear_428_2881" x1="277.5" y1="179.5" x2="117.5" y2="287" gradientUnits="userSpaceOnUse">
<stop stop-color="#BA3C3C"/>
<stop offset="1" stop-color="#FFBEBE"/>
</linearGradient>
<linearGradient id="paint31_linear_428_2881" x1="277.5" y1="179.5" x2="117.5" y2="287" gradientUnits="userSpaceOnUse">
<stop stop-color="#BA3C3C"/>
<stop offset="1" stop-color="#FFBEBE"/>
</linearGradient>
<linearGradient id="paint32_linear_428_2881" x1="277.5" y1="179.5" x2="117.5" y2="287" gradientUnits="userSpaceOnUse">
<stop stop-color="#BA3C3C"/>
<stop offset="1" stop-color="#FFBEBE"/>
</linearGradient>
<linearGradient id="paint33_linear_428_2881" x1="277.5" y1="179.5" x2="117.5" y2="287" gradientUnits="userSpaceOnUse">
<stop stop-color="#BA3C3C"/>
<stop offset="1" stop-color="#FFBEBE"/>
</linearGradient>
<linearGradient id="paint34_linear_428_2881" x1="277.5" y1="179.5" x2="117.5" y2="287" gradientUnits="userSpaceOnUse">
<stop stop-color="#BA3C3C"/>
<stop offset="1" stop-color="#FFBEBE"/>
</linearGradient>
<linearGradient id="paint35_linear_428_2881" x1="277.5" y1="179.5" x2="117.5" y2="287" gradientUnits="userSpaceOnUse">
<stop stop-color="#BA3C3C"/>
<stop offset="1" stop-color="#FFBEBE"/>
</linearGradient>
<linearGradient id="paint36_linear_428_2881" x1="277.5" y1="179.5" x2="117.5" y2="287" gradientUnits="userSpaceOnUse">
<stop stop-color="#BA3C3C"/>
<stop offset="1" stop-color="#FFBEBE"/>
</linearGradient>
<linearGradient id="paint37_linear_428_2881" x1="277.5" y1="179.5" x2="117.5" y2="287" gradientUnits="userSpaceOnUse">
<stop stop-color="#BA3C3C"/>
<stop offset="1" stop-color="#FFBEBE"/>
</linearGradient>
<linearGradient id="paint38_linear_428_2881" x1="277.5" y1="179.5" x2="117.5" y2="287" gradientUnits="userSpaceOnUse">
<stop stop-color="#BA3C3C"/>
<stop offset="1" stop-color="#FFBEBE"/>
</linearGradient>
<linearGradient id="paint39_linear_428_2881" x1="277.5" y1="179.5" x2="117.5" y2="287" gradientUnits="userSpaceOnUse">
<stop stop-color="#BA3C3C"/>
<stop offset="1" stop-color="#FFBEBE"/>
</linearGradient>
<linearGradient id="paint40_linear_428_2881" x1="277.5" y1="179.5" x2="117.5" y2="287" gradientUnits="userSpaceOnUse">
<stop stop-color="#BA3C3C"/>
<stop offset="1" stop-color="#FFBEBE"/>
</linearGradient>
<linearGradient id="paint41_linear_428_2881" x1="277.5" y1="179.5" x2="117.5" y2="287" gradientUnits="userSpaceOnUse">
<stop stop-color="#BA3C3C"/>
<stop offset="1" stop-color="#FFBEBE"/>
</linearGradient>
<linearGradient id="paint42_linear_428_2881" x1="277.5" y1="179.5" x2="117.5" y2="287" gradientUnits="userSpaceOnUse">
<stop stop-color="#BA3C3C"/>
<stop offset="1" stop-color="#FFBEBE"/>
</linearGradient>
<linearGradient id="paint43_linear_428_2881" x1="277.5" y1="179.5" x2="117.5" y2="287" gradientUnits="userSpaceOnUse">
<stop stop-color="#BA3C3C"/>
<stop offset="1" stop-color="#FFBEBE"/>
</linearGradient>
<linearGradient id="paint44_linear_428_2881" x1="277.5" y1="179.5" x2="117.5" y2="287" gradientUnits="userSpaceOnUse">
<stop stop-color="#BA3C3C"/>
<stop offset="1" stop-color="#FFBEBE"/>
</linearGradient>
<linearGradient id="paint45_linear_428_2881" x1="277.5" y1="179.5" x2="117.5" y2="287" gradientUnits="userSpaceOnUse">
<stop stop-color="#BA3C3C"/>
<stop offset="1" stop-color="#FFBEBE"/>
</linearGradient>
</defs>
</svg>
