<svg width="32" height="32" viewBox="0 0 32 32" fill="none" xmlns="http://www.w3.org/2000/svg">
<g clip-path="url(#clip0_428_2886)">
<path fill-rule="evenodd" clip-rule="evenodd" d="M30.7468 24.5809C31.3287 24.1275 31.7364 23.4873 31.9015 22.7684C31.9088 22.5855 31.844 22.4069 31.7209 22.2713C31.5979 22.1357 31.4264 22.0539 31.2436 22.0435H30.7737C29.3736 22.0755 27.9732 21.9992 26.5849 21.8152L26.1687 21.05C25.8464 20.3921 25.5377 19.7073 25.202 19.1167C24.8664 18.5259 24.7187 18.2575 24.4368 17.7741C24.3655 17.6796 24.2731 17.6028 24.1671 17.55C24.0611 17.4972 23.9443 17.4697 23.8259 17.4697C23.7075 17.4697 23.5907 17.4972 23.4847 17.55C23.3787 17.6028 23.2864 17.6796 23.2151 17.7741C22.9356 18.2073 22.6801 18.6555 22.4497 19.1167C22.1007 19.7343 21.7919 20.3921 21.4696 21.0365L21.0535 21.8019C19.6707 21.9965 18.2741 22.0773 16.878 22.0435H16.3947C16.2108 22.0572 16.0393 22.142 15.9165 22.2797C15.7939 22.4175 15.7293 22.5975 15.7369 22.7819C15.9024 23.504 16.3156 24.1453 16.9049 24.5944C17.8844 25.3776 18.9211 26.0867 20.0063 26.7156L19.872 27.0109C19.6707 27.5347 18.8113 29.186 18.5295 30.2467C18.4205 30.5289 18.3703 30.8304 18.3817 31.1327C18.3896 31.2277 18.4176 31.32 18.4639 31.4033C18.5103 31.4867 18.5737 31.5592 18.6503 31.616C18.944 31.816 19.2816 31.9423 19.6344 31.9844C19.9872 32.0264 20.3451 31.9829 20.6776 31.8577C21.8575 31.3827 22.9404 30.6956 23.8729 29.8304C24.866 30.6712 25.9909 31.3425 27.2024 31.8175C27.5387 31.9539 27.9023 32.0092 28.2639 31.9788C28.6253 31.9485 28.9747 31.8335 29.2835 31.6429C29.3657 31.5845 29.4339 31.5083 29.4827 31.42C29.5315 31.3316 29.5597 31.2335 29.5653 31.1327C29.5828 30.8256 29.5324 30.5185 29.4177 30.2332C29.0955 29.186 28.2093 27.548 28.008 26.9976C28.008 26.9976 28.008 26.8096 27.9409 26.6888L28.1825 26.5411C29.0816 25.9477 29.9384 25.2928 30.7468 24.5809ZM26.8668 27.3869C27.4756 28.5103 28.0007 29.6769 28.4376 30.8776C27.9247 31.0305 27.3725 30.9825 26.8937 30.7433C25.8941 30.2872 24.9596 29.7003 24.1145 28.998C24.0351 28.9449 23.9416 28.9165 23.846 28.9165C23.7504 28.9165 23.6569 28.9449 23.5775 28.998C22.7551 29.7109 21.8543 30.328 20.8924 30.8373C20.6504 30.9717 20.3817 31.0511 20.1056 31.0697C19.8293 31.0883 19.5525 31.0456 19.2947 30.9448C19.7373 29.7464 20.2715 28.5839 20.8924 27.4675C21.0213 27.222 21.1292 26.966 21.2145 26.7023C21.2443 26.5787 21.2443 26.4499 21.2145 26.3263C21.1016 26.1279 20.9399 25.9615 20.7447 25.8429C20.2613 25.5073 19.1739 24.8092 18.2877 24.0708C18.0473 23.874 17.8188 23.6633 17.6031 23.4397C18.9213 23.4812 20.2408 23.4229 21.5503 23.2652C21.8263 23.1901 22.0768 23.0416 22.2752 22.8356C22.5295 22.4956 22.7415 22.1259 22.9063 21.7347C23.2151 21.0903 23.5239 20.4861 23.846 19.8685L23.9535 19.7073L24.034 19.8685C24.3831 20.4727 24.6784 21.0903 24.9872 21.7347C25.1484 22.1264 25.3655 22.4927 25.6316 22.8221C25.8251 23.0277 26.0712 23.1763 26.3432 23.2517C27.6567 23.4155 28.9808 23.4784 30.3039 23.4397C30.0819 23.6667 29.844 23.8775 29.5923 24.0708C28.8047 24.6997 27.9847 25.2868 27.1353 25.8295C26.9423 25.9564 26.7815 26.1265 26.6655 26.3263C26.6285 26.4535 26.6285 26.5885 26.6655 26.7156C26.7111 26.9453 26.7785 27.17 26.8668 27.3869Z" fill="#F7F7F7"/>
<path fill-rule="evenodd" clip-rule="evenodd" d="M6.3258 1.75717C6.19288 1.73041 6.05596 1.73041 5.92303 1.75717C5.65112 1.70081 5.36956 1.71171 5.10283 1.78892C4.83609 1.86613 4.59224 2.00733 4.39249 2.20023C3.89575 3.07289 3.80176 3.65021 2.92909 9.53069C2.66057 11.3432 2.19067 13.008 1.86845 14.6057C1.54624 16.2033 1.21059 18.0829 0.848093 19.6671C0.510101 20.8381 0.232272 22.0257 0.0156968 23.225C-0.017047 23.4203 0.00163323 23.6209 0.0699002 23.8069C0.138167 23.9929 0.253669 24.1578 0.405044 24.2857C1.63321 24.7706 2.90572 25.1349 4.20453 25.3731C7.56097 26.1115 12.0452 26.8902 12.8104 27.0245C12.9149 27.0415 13.022 27.0195 13.1112 26.9625C13.2004 26.9055 13.2654 26.8177 13.2937 26.7157C13.3054 26.6609 13.306 26.6043 13.2953 26.5494C13.2845 26.4945 13.2629 26.4423 13.2316 26.3959C13.2002 26.3495 13.1599 26.3099 13.1129 26.2795C13.0659 26.2491 13.0133 26.2285 12.9581 26.2189C12.1929 26.0443 7.76236 25.0777 4.45963 24.205C3.43205 23.9627 2.41901 23.6623 1.4254 23.3055C1.57308 22.3121 2.21752 20.1907 2.24437 20.043C2.48604 18.9555 2.72771 17.8278 2.92909 16.6329C3.62723 12.6857 4.01657 9.12792 5.07721 3.89187C5.07721 3.89187 5.18461 3.22059 5.19804 3.20716C5.34607 3.10273 5.50901 3.02125 5.68136 2.96549C5.99016 2.96549 6.23183 2.96549 6.33923 2.88493C6.66144 2.54929 6.67487 1.83773 6.3258 1.75717Z" fill="#F7F7F7"/>
<path fill-rule="evenodd" clip-rule="evenodd" d="M24.035 12.162C24.1423 11.7055 24.2229 11.2625 24.2901 10.8194C24.3571 10.3764 24.4243 9.91991 24.4779 9.47687C24.5854 8.51022 24.6391 7.50329 24.7465 6.28154C24.7665 6.20677 24.7665 6.12807 24.7465 6.0533C24.7465 6.0533 24.8539 5.95933 24.8674 5.87877C24.8914 5.7649 24.8697 5.64615 24.8069 5.54817C24.7441 5.45019 24.6451 5.38087 24.5317 5.35517C24.159 5.14587 23.7481 5.01347 23.3234 4.96582C22.9341 4.96582 22.4775 5.6371 22.7729 5.95933C22.8959 6.11389 23.0739 6.21491 23.2697 6.24126H23.9141C23.6455 7.38245 23.3905 8.3491 23.1757 9.26206C23.0817 9.71854 22.9877 10.1616 22.9071 10.6046C22.8266 11.0477 22.7595 11.4907 22.7058 11.9472C22.6118 12.9004 22.1957 15.317 22.1017 16.5388C22.0929 16.5882 22.0938 16.6388 22.1046 16.6878C22.1153 16.7368 22.1355 16.7832 22.1642 16.8242C22.193 16.8654 22.2294 16.9005 22.2717 16.9276C22.3139 16.9546 22.361 16.973 22.4105 16.9818C22.4598 16.9906 22.5105 16.9897 22.5594 16.9789C22.6083 16.9682 22.6547 16.948 22.6959 16.9192C22.737 16.8905 22.7721 16.8541 22.7991 16.8118C22.8262 16.7696 22.8446 16.7225 22.8535 16.673C22.8401 16.324 23.8738 12.5916 24.035 12.162Z" fill="#F7F7F7"/>
<path fill-rule="evenodd" clip-rule="evenodd" d="M27.6991 4.97943C27.5837 4.49061 27.3639 4.03259 27.0547 3.63685C26.7268 3.18444 26.2789 2.83277 25.7617 2.62161C25.2445 2.41045 24.6785 2.34821 24.1277 2.44196L23.6311 2.34797C22.1139 2.03919 21.0131 1.69012 19.5093 1.35447C18.9723 1.23364 18.3816 1.13966 17.6968 1.01883C17.0121 0.897997 16.0724 0.750313 15.2803 0.669759C9.5474 0.0521746 9.34601 -0.525133 7.92289 0.817443C7.74288 0.97078 7.58875 1.15211 7.46641 1.35447C6.40577 2.95213 6.20439 5.71784 4.23081 16.1899C4.06969 16.9955 3.57295 18.2709 3.41184 19.3987C3.2872 19.9512 3.2872 20.5244 3.41184 21.0769C3.5218 21.3083 3.68495 21.5104 3.88795 21.6668C4.09095 21.8231 4.32804 21.9292 4.57988 21.9764C6.09699 22.406 9.62796 22.5537 12.4339 23.1041C12.4895 23.1181 12.5473 23.1208 12.6039 23.1121C12.6605 23.1033 12.7148 23.0833 12.7636 23.0533C12.8124 23.0233 12.8547 22.9839 12.888 22.9372C12.9213 22.8907 12.9449 22.8379 12.9575 22.782C12.982 22.67 12.9621 22.5528 12.902 22.4552C12.8419 22.3576 12.7463 22.2869 12.6353 22.2584C10.6617 21.7616 8.31224 21.4395 6.59373 21.1037C5.65393 20.9292 4.40535 20.8352 4.63357 20.5533C4.63357 20.4861 4.71413 20.6473 4.72756 20.7009C4.64745 20.1981 4.6842 19.6836 4.83496 19.1973C5.04977 18.2307 5.41227 17.1968 5.57339 16.5121C5.82847 15.3709 6.13727 14.2297 6.3118 13.0752C7.65437 4.01277 7.03679 5.01971 8.17797 2.76417C8.35636 2.41493 8.57247 2.08628 8.82241 1.78409C9.16501 1.34853 9.63399 1.02963 10.165 0.871145C11.333 1.20679 12.4876 1.48873 13.6691 1.7304C14.8505 1.97205 16.1127 2.16001 17.4015 2.41511C19.2945 2.65677 20.5163 2.91187 21.8857 3.11324L22.4496 3.1938C20.8116 4.53637 20.8519 5.27479 19.5764 9.90668C19.4691 10.3229 19.3751 10.7257 19.2945 11.1419C19.214 11.558 19.1603 11.9608 19.1065 12.377C18.9723 13.3571 18.4084 17.5863 18.3279 18.5663C18.3129 18.6764 18.3413 18.788 18.4069 18.8776C18.4725 18.9673 18.5703 19.028 18.6797 19.0472C18.7892 19.0663 18.9017 19.0423 18.9939 18.9801C19.086 18.918 19.1504 18.8227 19.1737 18.714C19.4288 17.7608 20.2075 13.5853 20.5163 12.6455C20.6236 12.2428 20.7176 11.8266 20.7983 11.4238C20.8788 11.021 20.9728 10.6048 21.0131 10.1886C21.3755 6.83219 22.4361 4.61693 23.1745 4.06648C23.3724 3.88969 23.6065 3.75847 23.8605 3.68209C24.1147 3.60572 24.3824 3.58604 24.6448 3.62445C24.9073 3.66287 25.1581 3.75844 25.3797 3.90441C25.6012 4.05037 25.788 4.2432 25.9268 4.46925C26.1496 4.77631 26.2843 5.13843 26.3161 5.51645C26.362 5.96281 26.362 6.41268 26.3161 6.85903C26.3161 7.66457 26.1953 8.49697 26.088 9.32937C25.9873 10.1552 25.844 10.9753 25.6583 11.7863L25.2556 13.4376C25.2135 13.5416 25.182 13.6496 25.1616 13.7599H24.8259C24.6416 13.7483 24.4604 13.7075 24.2889 13.6391C23.8861 13.6391 23.5908 14.2432 24.2889 14.5252C24.4983 14.6469 24.7323 14.7203 24.9736 14.74C25.2836 14.7629 25.5941 14.7027 25.8732 14.5655C25.9972 14.5051 26.0935 14.3993 26.1416 14.27C26.2044 14.0859 26.2537 13.8975 26.2893 13.7061L26.8129 12.0951C27.0721 11.2576 27.2828 10.4059 27.444 9.54419C27.6051 8.67151 27.6991 7.79884 27.7796 6.95301C27.8425 6.29455 27.8155 5.63057 27.6991 4.97943Z" fill="#F7F7F7"/>
<path fill-rule="evenodd" clip-rule="evenodd" d="M19.6712 6.84525C19.6876 6.79059 19.6929 6.73323 19.6869 6.6765C19.6808 6.61975 19.6636 6.56479 19.6361 6.51479C19.6085 6.46481 19.5714 6.42079 19.5266 6.38533C19.482 6.34986 19.4306 6.32365 19.3757 6.30822C18.154 5.89202 16.9189 5.48925 15.6569 5.18046C15.1198 5.04619 14.5693 4.93879 14.0189 4.84481C13.4685 4.75083 12.918 4.6837 12.3675 4.62999C11.025 4.53602 9.77635 4.54945 8.48749 4.62999C8.3863 4.62249 8.28618 4.65477 8.20845 4.71997C8.13071 4.78517 8.0815 4.87813 8.07129 4.97907C8.06765 5.02954 8.07422 5.08022 8.09063 5.12807C8.10705 5.17594 8.13297 5.21999 8.16681 5.25761C8.20066 5.29522 8.24175 5.32561 8.28762 5.34695C8.3335 5.3683 8.38321 5.38017 8.43378 5.38185C9.87034 5.59666 11.28 5.90545 12.7166 6.16054C13.5758 6.32165 14.435 6.42905 15.2809 6.56331C16.6234 6.7647 17.8721 6.93923 19.1476 7.20774C19.206 7.22138 19.2666 7.22262 19.3256 7.21141C19.3845 7.20018 19.4404 7.17674 19.4897 7.14259C19.539 7.10845 19.5806 7.06434 19.612 7.01313C19.6432 6.96193 19.6633 6.90473 19.6712 6.84525Z" fill="#F7F7F7"/>
<path fill-rule="evenodd" clip-rule="evenodd" d="M17.0651 11.1952C17.0901 11.1423 17.1042 11.085 17.1069 11.0267C17.1095 10.9683 17.1006 10.91 17.0806 10.8551C17.0606 10.8002 17.0301 10.7498 16.9905 10.7068C16.951 10.6637 16.9034 10.629 16.8503 10.6044C16.5721 10.4551 16.2798 10.3336 15.9777 10.2419C15.5346 10.1077 15.0647 10.0137 14.6351 9.90629C14.2054 9.79887 13.9503 9.75861 13.6013 9.7049C13.0539 9.63371 12.5016 9.60678 11.9499 9.62434C11.0628 9.6771 10.1845 9.83023 9.33189 10.0808C9.28253 10.0879 9.23503 10.1046 9.19213 10.13C9.14921 10.1554 9.11173 10.189 9.08181 10.2289C9.05189 10.2688 9.03011 10.3142 9.01774 10.3625C9.00537 10.4108 9.00262 10.4611 9.00967 10.5104C9.01673 10.5598 9.03343 10.6073 9.05885 10.6502C9.08425 10.6931 9.11786 10.7306 9.15775 10.7605C9.19765 10.7904 9.24305 10.8122 9.29135 10.8246C9.33966 10.837 9.38993 10.8397 9.4393 10.8327H10.4328C11.1041 10.8327 11.7754 10.9938 12.393 11.0609C13.0106 11.128 13.7355 11.0609 14.3666 11.1952H15.7091C15.9689 11.2159 16.2255 11.2654 16.4743 11.3428C16.5731 11.3984 16.6893 11.414 16.7991 11.3866C16.909 11.3591 17.0042 11.2906 17.0651 11.1952Z" fill="#F7F7F7"/>
<path fill-rule="evenodd" clip-rule="evenodd" d="M13.5359 14.5253C13.1756 14.4134 12.8077 14.3282 12.435 14.2702C12.0627 14.199 11.6858 14.1541 11.3072 14.136C10.41 14.1124 9.51238 14.1573 8.62205 14.2702C8.53285 14.287 8.4523 14.3345 8.39435 14.4044C8.33641 14.4742 8.30469 14.5621 8.30469 14.6529C8.30469 14.7437 8.33641 14.8316 8.39435 14.9014C8.4523 14.9713 8.53285 15.0188 8.62205 15.0356C9.60213 15.1697 10.5151 15.4114 11.4549 15.586C12.0322 15.6934 12.5826 15.7605 13.16 15.8545C14.0058 15.9753 14.865 16.0828 15.7108 16.2706C15.8212 16.3048 15.9406 16.2944 16.0434 16.2417C16.1463 16.189 16.2244 16.0982 16.2614 15.9888C16.2954 15.8784 16.285 15.759 16.2323 15.6562C16.1796 15.5533 16.0888 15.4752 15.9794 15.4382C15.1846 15.0837 14.3684 14.7788 13.5359 14.5253Z" fill="#F7F7F7"/>
</g>
<defs>
<clipPath id="clip0_428_2886">
<rect width="32" height="32" fill="white"/>
</clipPath>
</defs>
</svg>
